<svg xmlns="http://www.w3.org/2000/svg" width="2560" height="867" viewBox="0 0 2560 867" role="img" aria-label="Innovation Gurus logo">
  <path fill="#000" fill-rule="evenodd" d="M393 35 L394 35 L394 29 L397 24 L397 21 L408 8 L422 1 L440 0 L440 1 L444 1 L444 2 L454 5 L466 16 L466 18 L468 19 L471 25 L472 32 L473 32 L473 48 L472 48 L472 52 L471 52 L471 55 L468 61 L457 73 L445 79 L425 80 L425 79 L421 79 L421 78 L418 78 L412 75 L401 65 L401 63 L399 62 L395 54 L394 45 L393 45 Z M1047 108 L1326 108 L1327 109 L1327 185 L1232 185 L1232 488 L1233 489 L1235 488 L1236 489 L1237 488 L1238 489 L1239 488 L1240 489 L1241 488 L1242 489 L1243 488 L1244 489 L1245 488 L1246 489 L1247 488 L1248 489 L1249 488 L1250 489 L1251 488 L1252 489 L1253 488 L1255 489 L1256 488 L1258 489 L1259 488 L1261 489 L1262 488 L1264 489 L1265 488 L1267 489 L1268 488 L1271 488 L1271 489 L1272 488 L1275 488 L1275 489 L1276 488 L1279 488 L1279 489 L1280 488 L1283 488 L1283 489 L1284 488 L1287 488 L1287 489 L1288 488 L1291 488 L1291 489 L1292 488 L1295 488 L1295 489 L1296 488 L1298 489 L1299 488 L1301 489 L1302 488 L1304 489 L1305 488 L1307 489 L1308 488 L1310 489 L1311 488 L1313 489 L1314 488 L1315 489 L1325 488 L1327 489 L1327 565 L1326 566 L1048 566 L1047 565 L1047 489 L1048 488 L1049 489 L1050 488 L1051 489 L1052 488 L1053 489 L1054 488 L1055 489 L1056 488 L1057 489 L1058 488 L1059 489 L1060 488 L1061 489 L1062 488 L1064 489 L1065 488 L1067 489 L1068 488 L1070 489 L1071 488 L1073 489 L1074 488 L1076 489 L1077 488 L1079 489 L1080 488 L1083 488 L1083 489 L1084 488 L1087 488 L1087 489 L1088 488 L1091 488 L1091 489 L1092 488 L1095 488 L1095 489 L1096 488 L1099 488 L1099 489 L1100 488 L1103 488 L1103 489 L1104 488 L1106 489 L1107 488 L1109 489 L1110 488 L1112 489 L1113 488 L1115 489 L1116 488 L1118 489 L1119 488 L1120 489 L1121 488 L1122 489 L1123 488 L1124 489 L1125 488 L1126 489 L1127 488 L1128 489 L1129 488 L1130 489 L1131 488 L1132 489 L1142 488 L1142 186 L1141 185 L1047 185 Z M1382 108 L1567 108 L1567 109 L1578 109 L1578 110 L1584 110 L1584 111 L1591 111 L1591 112 L1596 112 L1596 113 L1600 113 L1600 114 L1604 114 L1604 115 L1608 115 L1608 116 L1620 119 L1622 121 L1625 121 L1627 123 L1630 123 L1640 128 L1641 130 L1645 131 L1646 133 L1650 134 L1652 137 L1657 139 L1660 143 L1662 143 L1683 166 L1683 168 L1689 175 L1698 193 L1698 196 L1699 196 L1699 199 L1700 199 L1700 202 L1703 208 L1704 216 L1705 216 L1706 226 L1707 226 L1709 258 L1708 258 L1707 278 L1706 278 L1703 296 L1702 296 L1699 308 L1697 310 L1697 313 L1692 321 L1692 324 L1690 325 L1688 331 L1686 332 L1686 334 L1684 335 L1680 343 L1676 346 L1676 348 L1660 364 L1658 364 L1656 367 L1654 367 L1652 370 L1650 370 L1646 374 L1638 377 L1635 380 L1628 382 L1628 385 L1718 563 L1718 566 L1617 566 L1607 546 L1607 543 L1605 542 L1605 539 L1595 521 L1595 518 L1585 500 L1585 497 L1574 477 L1574 474 L1572 473 L1572 470 L1563 454 L1563 451 L1552 431 L1552 428 L1536 397 L1472 397 L1472 565 L1471 566 L1382 566 Z M1751 564 L1752 564 L1752 561 L1755 555 L1757 544 L1758 544 L1758 541 L1761 535 L1761 531 L1764 525 L1764 521 L1767 515 L1767 511 L1770 505 L1770 501 L1773 495 L1773 491 L1776 485 L1779 471 L1780 471 L1780 468 L1783 462 L1783 458 L1786 452 L1786 448 L1789 442 L1789 438 L1792 432 L1792 428 L1795 422 L1798 408 L1799 408 L1799 405 L1802 399 L1802 395 L1805 389 L1807 378 L1810 372 L1810 368 L1813 362 L1813 358 L1816 352 L1816 348 L1817 348 L1819 338 L1822 332 L1822 328 L1825 322 L1825 318 L1826 318 L1826 315 L1829 309 L1829 305 L1832 299 L1832 295 L1835 289 L1835 285 L1838 279 L1838 275 L1841 269 L1841 265 L1842 265 L1844 255 L1847 249 L1847 245 L1848 245 L1848 242 L1851 236 L1851 232 L1854 226 L1854 222 L1857 216 L1857 212 L1860 206 L1860 202 L1863 196 L1863 192 L1864 192 L1866 182 L1867 182 L1867 179 L1870 173 L1871 165 L1872 165 L1872 162 L1875 156 L1875 152 L1878 146 L1878 142 L1881 136 L1881 132 L1884 126 L1884 122 L1885 122 L1888 110 L1889 109 L1994 109 L1997 119 L1998 119 L1998 123 L2001 129 L2001 133 L2004 139 L2004 143 L2007 149 L2007 153 L2008 153 L2010 163 L2013 169 L2013 173 L2016 179 L2016 183 L2017 183 L2017 186 L2020 192 L2020 196 L2023 202 L2023 206 L2026 212 L2026 216 L2029 222 L2029 226 L2032 232 L2032 236 L2035 242 L2038 256 L2039 256 L2039 259 L2042 265 L2043 273 L2044 273 L2044 276 L2047 282 L2047 286 L2050 292 L2050 296 L2053 302 L2053 306 L2056 312 L2056 316 L2057 316 L2059 326 L2062 332 L2062 336 L2063 336 L2063 339 L2066 345 L2066 349 L2069 355 L2069 359 L2072 365 L2072 369 L2075 375 L2075 379 L2078 385 L2078 389 L2081 395 L2081 399 L2082 399 L2084 409 L2085 409 L2085 412 L2088 418 L2088 422 L2091 428 L2091 432 L2094 438 L2094 442 L2097 448 L2097 452 L2100 458 L2100 462 L2103 468 L2103 472 L2106 478 L2108 489 L2111 495 L2111 499 L2112 499 L2112 502 L2115 508 L2115 512 L2118 518 L2118 522 L2121 528 L2121 532 L2124 538 L2124 542 L2125 542 L2132 566 L2131 567 L2035 567 L2033 564 L2031 553 L2030 553 L2025 529 L2023 526 L2023 521 L2021 518 L2021 514 L2020 514 L2020 510 L2019 510 L2019 506 L2018 506 L2018 502 L2017 502 L2016 494 L2014 491 L2014 487 L2013 487 L2013 483 L2012 483 L2012 479 L2011 479 L2011 475 L2010 475 L2010 471 L2009 471 L2009 467 L2008 467 L2005 454 L1871 454 L1869 458 L1867 470 L1865 473 L1864 481 L1862 484 L1860 496 L1858 499 L1856 511 L1854 514 L1854 518 L1853 518 L1851 530 L1849 533 L1847 545 L1845 548 L1844 556 L1843 556 L1840 567 L1752 567 Z M2179 564 L2182 558 L2182 554 L2185 548 L2185 544 L2188 538 L2188 534 L2191 528 L2194 514 L2195 514 L2195 511 L2198 505 L2198 501 L2199 501 L2201 491 L2204 485 L2204 481 L2207 475 L2209 464 L2210 464 L2212 454 L2215 448 L2215 444 L2218 438 L2218 434 L2219 434 L2219 431 L2222 425 L2222 421 L2225 415 L2225 411 L2228 405 L2228 401 L2231 395 L2231 391 L2234 385 L2234 381 L2237 375 L2240 361 L2241 361 L2241 358 L2244 352 L2244 348 L2247 342 L2247 338 L2250 332 L2250 328 L2253 322 L2253 318 L2256 312 L2256 308 L2259 302 L2262 288 L2263 288 L2263 285 L2266 279 L2266 275 L2269 269 L2271 258 L2274 252 L2274 248 L2277 242 L2277 238 L2280 232 L2280 228 L2281 228 L2283 218 L2286 212 L2286 208 L2289 202 L2289 198 L2290 198 L2290 195 L2293 189 L2293 185 L2296 179 L2296 175 L2299 169 L2299 165 L2302 159 L2302 155 L2305 149 L2305 145 L2308 139 L2308 135 L2311 129 L2311 125 L2312 125 L2312 122 L2315 116 L2316 109 L2422 109 L2560 566 L2559 567 L2462 567 L2433 454 L2299 454 L2297 461 L2296 461 L2293 477 L2291 480 L2289 492 L2287 495 L2285 507 L2283 510 L2281 522 L2279 525 L2276 541 L2274 544 L2272 556 L2271 556 L2268 567 L2179 567 Z M122 428 L123 428 L124 420 L129 410 L132 408 L132 406 L135 403 L137 403 L139 400 L141 400 L142 398 L146 396 L158 394 L158 393 L328 393 L330 392 L336 385 L335 372 L273 310 L271 310 L241 280 L241 278 L219 257 L219 255 L216 252 L216 246 L215 246 L217 231 L219 227 L223 224 L223 222 L225 222 L227 219 L232 218 L234 216 L248 216 L250 218 L255 219 L282 245 L282 247 L285 248 L285 250 L337 302 L339 302 L372 335 L376 337 L385 336 L391 331 L393 327 L393 156 L394 156 L394 151 L401 137 L411 128 L421 125 L421 124 L426 124 L426 123 L440 123 L440 124 L450 126 L454 128 L455 130 L457 130 L466 139 L466 141 L468 142 L472 150 L472 154 L473 154 L473 326 L474 326 L475 331 L481 336 L492 337 L611 218 L614 218 L617 216 L634 217 L638 219 L639 221 L641 221 L646 226 L646 228 L648 229 L650 233 L651 246 L650 246 L647 256 L532 371 L530 375 L530 384 L532 388 L534 389 L534 391 L536 391 L537 393 L707 393 L707 394 L716 395 L716 396 L719 396 L725 399 L729 403 L731 403 L732 406 L734 406 L734 408 L739 413 L742 423 L743 423 L744 438 L743 438 L741 450 L738 453 L737 457 L728 466 L724 467 L723 469 L719 471 L709 473 L709 474 L537 474 L536 476 L534 476 L530 482 L530 493 L644 607 L644 609 L647 611 L649 618 L650 618 L650 633 L646 641 L641 646 L639 646 L638 648 L634 650 L617 651 L617 650 L612 649 L585 622 L583 622 L583 620 L580 619 L580 617 L578 617 L495 532 L491 530 L483 530 L479 532 L478 534 L476 534 L473 539 L473 711 L472 711 L472 715 L465 729 L452 740 L444 742 L444 743 L440 743 L440 744 L427 744 L427 743 L418 742 L414 740 L413 738 L411 738 L407 733 L405 733 L404 730 L399 725 L399 723 L397 722 L395 715 L394 715 L394 711 L393 711 L393 538 L391 537 L391 535 L383 530 L375 530 L371 532 L272 630 L271 633 L269 633 L267 637 L265 637 L265 639 L257 647 L247 650 L247 651 L234 651 L226 647 L220 641 L217 635 L216 625 L215 625 L217 613 L237 593 L237 591 L282 546 L284 546 L336 493 L337 487 L336 487 L335 480 L329 474 L158 474 L158 473 L145 470 L144 468 L137 465 L130 458 L130 456 L128 455 L124 447 L124 443 L122 439 Z M157 179 L158 179 L158 175 L161 169 L169 161 L179 158 L179 157 L188 157 L188 158 L192 158 L198 161 L206 169 L208 176 L209 176 L209 181 L210 181 L209 192 L206 198 L203 200 L203 202 L200 203 L198 206 L191 208 L191 209 L186 209 L186 210 L175 209 L167 205 L160 197 L158 188 L157 188 Z M657 178 L658 178 L658 174 L661 168 L668 161 L674 158 L678 158 L678 157 L687 157 L687 158 L696 160 L705 168 L709 176 L709 190 L704 200 L697 206 L691 209 L686 209 L686 210 L675 209 L675 208 L668 206 L661 199 L658 193 L658 189 L657 189 Z M1472 183 L1472 276 L1473 276 L1472 277 L1473 278 L1472 279 L1473 280 L1472 281 L1472 294 L1473 294 L1472 295 L1473 296 L1472 297 L1473 298 L1472 299 L1472 310 L1473 310 L1472 311 L1473 312 L1472 313 L1473 314 L1472 315 L1472 326 L1473 327 L1549 327 L1549 326 L1554 326 L1554 325 L1565 324 L1568 322 L1572 322 L1576 319 L1579 319 L1583 317 L1584 315 L1588 314 L1602 301 L1602 299 L1606 295 L1611 285 L1611 282 L1614 276 L1615 265 L1616 265 L1616 244 L1615 244 L1614 232 L1613 232 L1613 229 L1612 229 L1612 226 L1610 224 L1608 217 L1606 216 L1602 208 L1593 199 L1591 199 L1589 196 L1585 195 L1584 193 L1576 189 L1573 189 L1573 188 L1570 188 L1564 185 L1554 184 L1554 183 Z M1890 380 L1890 384 L1986 384 L1987 383 L1940 199 L1936 199 L1928 235 L1927 235 L1926 242 L1925 242 L1925 247 L1923 250 L1915 286 L1913 289 L1913 294 L1911 297 L1902 337 L1900 340 L1899 349 L1897 352 L1897 356 L1896 356 L1896 360 L1895 360 L1895 364 L1894 364 L1894 368 L1893 368 L1893 372 L1892 372 L1892 376 Z M2318 379 L2318 384 L2414 384 L2415 383 L2368 199 L2364 199 L2364 203 L2363 203 L2363 207 L2361 210 L2361 215 L2360 215 L2360 219 L2358 222 L2350 258 L2348 261 L2348 266 L2347 266 L2347 270 L2345 273 L2337 309 L2335 312 L2335 317 L2334 317 L2334 321 L2332 324 L2321 372 L2320 372 L2319 379 Z M0 426 L1 426 L1 422 L2 422 L2 419 L6 411 L18 399 L24 396 L27 396 L30 394 L36 394 L36 393 L50 394 L50 395 L56 396 L60 398 L61 400 L63 400 L74 411 L78 419 L79 426 L80 426 L79 445 L73 457 L61 468 L55 471 L52 471 L49 473 L43 473 L43 474 L30 473 L30 472 L20 469 L15 464 L13 464 L10 461 L10 459 L7 457 L7 455 L5 454 L2 448 L1 440 L0 440 Z M786 430 L787 430 L787 423 L790 418 L790 415 L793 412 L793 410 L797 407 L797 405 L799 405 L803 400 L813 395 L830 393 L830 394 L836 394 L836 395 L839 395 L839 396 L842 396 L848 399 L859 409 L859 411 L861 412 L864 418 L865 424 L866 424 L867 436 L866 436 L865 446 L864 446 L864 449 L861 455 L852 465 L836 473 L823 474 L823 473 L813 472 L805 468 L794 458 L794 456 L792 455 L789 449 L788 443 L787 443 Z M157 678 L158 678 L158 674 L161 668 L168 661 L175 659 L175 658 L186 657 L186 658 L192 658 L204 666 L204 668 L206 669 L209 675 L210 686 L209 686 L209 691 L205 699 L199 705 L191 709 L179 710 L179 709 L170 707 L161 698 L158 692 L158 688 L157 688 Z M657 677 L658 677 L658 674 L661 668 L668 661 L674 658 L680 658 L680 657 L691 658 L699 662 L705 668 L709 676 L709 690 L704 700 L697 706 L691 709 L687 709 L687 710 L678 710 L678 709 L674 709 L668 706 L661 699 L658 693 L658 689 L657 689 Z M2202 732 L2220 730 L2223 740 L2227 744 L2231 746 L2235 746 L2235 747 L2244 747 L2244 746 L2248 746 L2252 744 L2256 739 L2256 730 L2251 726 L2238 723 L2238 722 L2234 722 L2234 721 L2230 721 L2230 720 L2224 719 L2216 715 L2209 708 L2207 704 L2206 689 L2207 689 L2207 686 L2210 680 L2215 675 L2221 672 L2224 672 L2224 671 L2228 671 L2228 670 L2249 670 L2249 671 L2253 671 L2253 672 L2260 674 L2266 679 L2266 681 L2270 685 L2270 688 L2272 691 L2272 697 L2254 698 L2252 690 L2245 685 L2231 685 L2231 686 L2226 687 L2223 691 L2223 696 L2225 699 L2231 702 L2237 703 L2237 704 L2249 706 L2257 710 L2260 710 L2263 713 L2265 713 L2272 721 L2273 726 L2274 726 L2275 737 L2274 737 L2274 742 L2273 742 L2273 745 L2270 751 L2265 756 L2263 756 L2262 758 L2258 760 L2251 761 L2251 762 L2227 762 L2227 761 L2221 760 L2215 757 L2208 750 L2204 742 Z M2288 711 L2289 711 L2289 703 L2290 703 L2292 693 L2294 689 L2296 688 L2296 686 L2299 684 L2299 682 L2303 678 L2305 678 L2311 673 L2321 671 L2321 670 L2346 671 L2358 677 L2367 686 L2368 690 L2370 691 L2370 694 L2373 699 L2373 704 L2374 704 L2374 714 L2375 714 L2374 715 L2374 729 L2373 729 L2371 739 L2369 743 L2367 744 L2367 746 L2364 748 L2364 750 L2361 753 L2359 753 L2354 758 L2343 761 L2343 762 L2334 762 L2334 763 L2320 762 L2320 761 L2311 759 L2305 754 L2303 754 L2298 749 L2298 747 L2295 745 L2292 739 L2292 736 L2290 734 L2290 730 L2289 730 Z M1033 757 L1037 750 L1038 744 L1040 742 L1041 736 L1045 729 L1046 723 L1048 721 L1049 715 L1053 708 L1054 702 L1056 700 L1057 694 L1059 692 L1059 689 L1064 679 L1064 676 L1066 674 L1066 671 L1086 671 L1088 678 L1090 680 L1090 683 L1092 685 L1092 688 L1094 690 L1094 693 L1096 695 L1096 698 L1098 700 L1098 703 L1100 705 L1100 708 L1102 710 L1102 713 L1104 715 L1105 721 L1108 725 L1113 741 L1115 743 L1115 746 L1117 748 L1117 751 L1119 753 L1119 756 L1121 758 L1121 761 L1102 761 L1099 755 L1098 749 L1096 747 L1095 741 L1059 741 L1057 744 L1055 753 L1053 755 L1052 761 L1033 761 Z M1133 671 L1150 671 L1151 672 L1151 736 L1158 745 L1164 746 L1164 747 L1177 746 L1183 741 L1185 737 L1185 672 L1186 671 L1203 671 L1203 738 L1202 738 L1201 746 L1198 752 L1194 756 L1192 756 L1191 758 L1185 761 L1166 763 L1166 762 L1156 762 L1156 761 L1147 759 L1138 751 L1135 745 L1134 736 L1133 736 Z M1224 671 L1272 672 L1272 673 L1282 676 L1291 685 L1296 695 L1296 699 L1298 703 L1299 722 L1298 722 L1298 729 L1297 729 L1295 740 L1293 744 L1291 745 L1291 747 L1289 748 L1289 750 L1285 754 L1283 754 L1282 756 L1278 758 L1267 760 L1267 761 L1224 761 Z M1315 671 L1333 671 L1333 761 L1315 761 Z M1346 671 L1416 671 L1416 686 L1415 687 L1390 687 L1390 761 L1372 761 L1372 687 L1346 687 Z M1533 671 L1603 671 L1603 686 L1602 687 L1577 687 L1577 761 L1559 761 L1559 687 L1533 687 Z M1608 759 L1613 749 L1613 746 L1616 741 L1619 730 L1621 728 L1621 725 L1624 720 L1625 714 L1627 712 L1628 706 L1632 699 L1633 693 L1637 686 L1641 672 L1642 671 L1662 671 L1662 674 L1664 676 L1664 679 L1666 681 L1666 684 L1668 686 L1668 689 L1670 691 L1670 694 L1672 696 L1672 699 L1674 701 L1674 704 L1676 706 L1679 717 L1682 721 L1683 727 L1685 729 L1685 732 L1687 734 L1687 737 L1689 739 L1689 742 L1691 744 L1691 747 L1693 749 L1693 752 L1695 754 L1697 761 L1677 761 L1670 741 L1634 741 L1627 761 L1608 761 Z M1700 759 L1702 758 L1705 751 L1708 749 L1709 745 L1711 744 L1711 742 L1713 741 L1713 739 L1715 738 L1715 736 L1717 735 L1717 733 L1719 732 L1719 730 L1721 729 L1721 727 L1723 726 L1723 724 L1725 723 L1725 721 L1730 715 L1730 713 L1728 712 L1728 710 L1726 709 L1726 707 L1724 706 L1724 704 L1718 697 L1717 693 L1715 692 L1715 690 L1713 689 L1713 687 L1711 686 L1711 684 L1705 677 L1703 671 L1723 671 L1740 697 L1742 697 L1742 695 L1744 694 L1744 692 L1746 691 L1746 689 L1748 688 L1748 686 L1750 685 L1750 683 L1752 682 L1752 680 L1754 679 L1758 671 L1779 671 L1779 673 L1777 674 L1777 676 L1775 677 L1775 679 L1773 680 L1773 682 L1767 689 L1766 693 L1764 694 L1764 696 L1762 697 L1762 699 L1760 700 L1760 702 L1754 709 L1752 716 L1754 717 L1757 724 L1759 725 L1759 727 L1761 728 L1761 730 L1763 731 L1763 733 L1765 734 L1765 736 L1767 737 L1767 739 L1769 740 L1769 742 L1771 743 L1771 745 L1773 746 L1773 748 L1775 749 L1776 753 L1778 754 L1778 756 L1780 757 L1782 761 L1760 761 L1741 731 L1721 761 L1700 761 Z M1894 758 L1896 756 L1897 750 L1899 748 L1900 742 L1904 735 L1905 729 L1909 722 L1910 716 L1912 714 L1913 708 L1915 706 L1916 700 L1920 693 L1920 690 L1925 680 L1927 672 L1928 671 L1947 671 L1983 761 L1963 761 L1956 741 L1920 741 L1913 761 L1894 761 Z M1994 671 L2042 672 L2042 673 L2048 674 L2051 677 L2053 677 L2061 685 L2065 693 L2067 703 L2068 703 L2068 716 L2069 716 L2068 717 L2068 729 L2067 729 L2064 742 L2062 743 L2058 751 L2054 753 L2052 756 L2042 759 L2042 760 L2037 760 L2037 761 L1994 761 Z M2077 671 L2096 671 L2118 736 L2120 734 L2120 731 L2121 731 L2121 728 L2122 728 L2122 725 L2123 725 L2123 722 L2124 722 L2124 719 L2127 713 L2127 709 L2129 707 L2130 700 L2131 700 L2140 671 L2159 671 L2159 674 L2157 676 L2154 688 L2152 690 L2149 702 L2147 704 L2143 719 L2141 721 L2137 736 L2135 738 L2133 747 L2131 749 L2128 761 L2108 761 L2107 760 L2107 757 L2106 757 L2104 748 L2102 746 L2097 728 L2095 726 L2091 711 L2089 709 L2084 691 L2082 689 Z M2170 671 L2188 671 L2188 761 L2170 761 Z M2391 671 L2437 671 L2437 672 L2449 673 L2453 675 L2455 678 L2457 678 L2457 680 L2460 682 L2462 689 L2463 689 L2462 707 L2454 717 L2448 720 L2441 721 L2441 722 L2445 724 L2453 732 L2453 734 L2459 741 L2460 745 L2464 749 L2470 761 L2449 761 L2447 757 L2445 756 L2445 754 L2443 753 L2443 751 L2441 750 L2441 748 L2439 747 L2439 745 L2437 744 L2437 742 L2435 741 L2435 739 L2433 738 L2433 736 L2431 735 L2431 733 L2428 731 L2428 729 L2421 724 L2409 724 L2409 761 L2391 761 Z M2473 671 L2494 671 L2498 679 L2500 680 L2501 684 L2503 685 L2504 689 L2506 690 L2508 696 L2510 697 L2511 701 L2513 702 L2514 706 L2516 706 L2518 700 L2520 699 L2522 693 L2524 692 L2526 686 L2528 685 L2535 671 L2556 671 L2523 724 L2523 761 L2506 761 L2506 724 L2504 720 L2502 719 L2501 715 L2499 714 L2499 712 L2497 711 L2496 707 L2490 700 L2486 691 L2480 684 L2479 680 L2475 676 Z M2307 708 L2308 729 L2309 729 L2311 736 L2316 742 L2318 742 L2319 744 L2323 746 L2336 747 L2336 746 L2340 746 L2344 744 L2350 739 L2350 737 L2352 736 L2354 732 L2355 723 L2356 723 L2356 708 L2355 708 L2355 703 L2354 703 L2354 700 L2351 694 L2346 689 L2340 686 L2335 686 L2335 685 L2328 685 L2328 686 L2321 687 L2312 694 L2309 700 L2309 703 L2308 703 L2308 708 Z M1242 687 L1242 746 L1268 745 L1276 739 L1278 731 L1279 731 L1279 726 L1280 726 L1280 707 L1279 707 L1279 701 L1277 699 L1277 696 L1272 690 L1266 687 Z M2012 687 L2012 746 L2032 746 L2032 745 L2037 745 L2037 744 L2042 743 L2048 734 L2049 724 L2050 724 L2049 702 L2048 702 L2048 699 L2045 693 L2042 690 L2035 688 L2035 687 Z M2409 687 L2409 709 L2435 709 L2435 708 L2441 707 L2444 703 L2444 700 L2445 700 L2444 692 L2442 691 L2442 689 L2438 687 Z M1640 724 L1640 725 L1664 725 L1652 693 L1651 693 L1650 699 L1648 701 L1645 713 L1643 715 L1643 718 Z M1926 723 L1926 725 L1949 725 L1949 722 L1947 720 L1947 717 L1946 717 L1946 714 L1943 709 L1938 693 L1936 695 L1935 701 L1933 703 L1931 712 L1929 714 L1929 717 Z M1065 722 L1065 725 L1088 725 L1077 694 L1075 694 L1074 700 L1072 702 L1069 714 Z M1466 744 L1483 744 L1483 761 L1466 761 Z M1830 744 L1847 744 L1847 761 L1830 761 Z M393 822 L394 822 L394 816 L397 811 L397 808 L409 794 L421 788 L441 787 L441 788 L445 788 L445 789 L448 789 L454 792 L460 798 L462 798 L462 800 L466 803 L466 805 L468 806 L471 812 L472 819 L473 819 L473 835 L472 835 L472 839 L471 839 L471 842 L468 848 L458 859 L444 866 L426 867 L426 866 L422 866 L422 865 L419 865 L411 861 L402 853 L394 837 Z"/>
</svg>
