<svg width="1600" height="900" viewBox="0 0 1600 900" fill="none" xmlns="http://www.w3.org/2000/svg">
  <defs>
    <linearGradient id="sky" x1="800" y1="0" x2="800" y2="900" gradientUnits="userSpaceOnUse">
      <stop stop-color="#111111"/>
      <stop offset="1" stop-color="#040404"/>
    </linearGradient>
    <linearGradient id="glow" x1="800" y1="180" x2="800" y2="760" gradientUnits="userSpaceOnUse">
      <stop stop-color="#C9A86C" stop-opacity="0.24"/>
      <stop offset="1" stop-color="#C9A86C" stop-opacity="0"/>
    </linearGradient>
    <linearGradient id="building" x1="800" y1="260" x2="800" y2="900" gradientUnits="userSpaceOnUse">
      <stop stop-color="#171717"/>
      <stop offset="1" stop-color="#090909"/>
    </linearGradient>
  </defs>

  <rect width="1600" height="900" fill="url(#sky)"/>
  <ellipse cx="980" cy="280" rx="360" ry="180" fill="url(#glow)"/>
  <rect y="728" width="1600" height="172" fill="#050505"/>

  <path d="M0 760H94V610H124V760H202V544H242V760H294V676H338V760H428V522H460V760H512V642H558V760H640V584H676V760H760V488H790V760H850V620H884V760H964V394H982V760H1026V610H1066V760H1160V572H1210V760H1294V648H1332V760H1418V592H1456V760H1532V664H1568V760H1600V900H0V760Z" fill="url(#building)"/>

  <path d="M935 760L967 236H980L1013 760H935Z" fill="#191919"/>
  <path d="M970 236L974 146H986L991 236H970Z" fill="#C9A86C" fill-opacity="0.7"/>
  <path d="M973 146L980 90L988 146H973Z" fill="#C9A86C" fill-opacity="0.82"/>

  <rect x="760" y="488" width="30" height="272" fill="#151515"/>
  <rect x="428" y="522" width="32" height="238" fill="#141414"/>
  <rect x="1160" y="572" width="50" height="188" fill="#121212"/>
  <rect x="1418" y="592" width="38" height="168" fill="#121212"/>
  <rect x="202" y="544" width="40" height="216" fill="#131313"/>

  <g fill="#C9A86C" fill-opacity="0.22">
    <rect x="438" y="548" width="4" height="120"/>
    <rect x="446" y="548" width="4" height="120"/>
    <rect x="768" y="504" width="4" height="152"/>
    <rect x="776" y="504" width="4" height="152"/>
    <rect x="1176" y="588" width="4" height="92"/>
    <rect x="1184" y="588" width="4" height="92"/>
    <rect x="1428" y="608" width="4" height="78"/>
    <rect x="1436" y="608" width="4" height="78"/>
  </g>

  <rect y="760" width="1600" height="140" fill="url(#sky)" opacity="0.52"/>
</svg>
