<?xml version="1.0" encoding="UTF-8"?>
<svg version="1.1" xmlns="http://www.w3.org/2000/svg" width="2560" height="867">
<path d="M0 0 C7.75712382 6.41578783 14.72344268 14.20336659 16.75 24.3125 C16.84568429 26.63446101 16.88330498 28.9590016 16.88803101 31.28292847 C16.89085229 31.98448378 16.89367357 32.68603909 16.89658034 33.40885365 C16.90491261 35.75939672 16.9062634 38.1098926 16.90771484 40.46044922 C16.91238402 42.1458652 16.91752776 43.83127992 16.92311096 45.51669312 C16.93438576 49.14637 16.94282288 52.7760387 16.94923019 56.40572739 C16.95991379 62.14577032 16.98015911 67.88575439 17.00234985 73.62576294 C17.06426365 89.94823515 17.11829975 106.27070369 17.15136719 122.59326172 C17.16970983 131.6078923 17.19863958 140.6224241 17.2393719 149.63698208 C17.26044449 154.40690721 17.27589957 159.17670785 17.27817917 163.94668198 C17.28032591 168.43322715 17.29619792 172.91951297 17.32256889 177.40597916 C17.32976181 179.05148132 17.33186289 180.69701491 17.32846642 182.3425293 C17.32456645 184.59136072 17.33904214 186.83936592 17.35800171 189.08810425 C17.36296693 190.97459592 17.36296693 190.97459592 17.36803246 192.89919853 C17.88680887 197.53503819 19.26842349 200.96982129 22.75 204.125 C26.8287113 206.54673483 31.10996921 207.1709057 35.75 206.3125 C38.15557827 204.48125354 39.81386895 202.98133784 41.75 200.75 C42.70525233 199.70420864 43.6636408 198.66127406 44.625 197.62109375 C45.09829239 197.10514648 45.57158478 196.58919922 46.05921936 196.05761719 C47.71647074 194.34710679 49.43754478 192.82424742 51.25561523 191.28710938 C56.67757559 186.57880076 61.71644935 181.49052426 66.78515625 176.41015625 C67.83297946 175.36300864 68.8809509 174.31600934 69.92906189 173.26914978 C72.11326988 171.08640674 74.29568332 168.90188975 76.47680664 166.71606445 C79.25253881 163.93463576 82.03273782 161.15772224 84.81430912 158.38213444 C86.97559203 156.22448979 89.13445714 154.06443853 91.29263115 151.90368462 C92.31601321 150.8796423 93.34011961 149.85632326 94.3650074 148.83378792 C99.45409444 143.75382493 104.43287734 138.63291657 109.11647034 133.17286682 C111.98756217 129.90308598 115.07166684 126.84825762 118.15234375 123.77734375 C118.83373917 123.09499161 119.51513458 122.41263947 120.21717834 121.70960999 C121.64705741 120.27905563 123.07817911 118.84974233 124.51049805 117.42163086 C126.68197711 115.25550926 128.84806325 113.08409826 131.01367188 110.91210938 C132.41374202 109.51270013 133.81412238 108.11360116 135.21484375 106.71484375 C135.85155502 106.07610825 136.4882663 105.43737274 137.14427185 104.77928162 C140.98481755 100.95834188 144.9408388 97.33177476 149.05738831 93.80934143 C150.88729293 92.24304138 150.88729293 92.24304138 152.875 90 C157.90034223 85.477192 164.82664113 85.82711054 171.20703125 85.94140625 C178.51243493 86.70658084 183.68926507 89.84561435 188.6875 95.125 C193.23896196 100.85726577 195.38938539 106.59647718 195.09765625 113.953125 C193.73837316 123.17792262 188.82858077 129.23657687 182.4551239 135.60588074 C179.90115937 138.16125707 177.35332546 140.72253601 174.80786133 143.28637695 C170.0987418 148.02798265 165.38469342 152.76465417 160.66769886 157.49842548 C157.82049916 160.35611846 154.97522472 163.21567817 152.1340332 166.0793457 C149.37696962 168.85806987 146.61511016 171.63194141 143.8497982 174.40245628 C142.79743996 175.45851581 141.74684642 176.51633684 140.6980381 177.57592201 C139.23792487 179.05046431 137.77176312 180.5187187 136.30395508 181.9855957 C135.47076248 182.82322952 134.63756989 183.66086334 133.77912903 184.52388 C131.75 186.3125 131.75 186.3125 129.75 186.3125 C129.42 187.3025 129.09 188.2925 128.75 189.3125 C128.09 189.3125 127.43 189.3125 126.75 189.3125 C126.42 190.3025 126.09 191.2925 125.75 192.3125 C124.09997172 193.66636936 122.4325613 194.99928142 120.75 196.3125 C120.09 197.3025 119.43 198.2925 118.75 199.3125 C118.09 199.3125 117.43 199.3125 116.75 199.3125 C116.42 200.3025 116.09 201.2925 115.75 202.3125 C115.09 202.3125 114.43 202.3125 113.75 202.3125 C113.42 203.3025 113.09 204.2925 112.75 205.3125 C111.13357213 207.02793478 109.45441889 208.68446075 107.75 210.3125 C106.62065301 211.42694356 105.49360228 212.54371713 104.3684082 213.66235352 C103.75459793 214.2697084 103.14078766 214.87706329 102.50837708 215.50282288 C99.74796248 218.23642793 96.99288613 220.97538714 94.23803711 223.71459961 C92.78407848 225.15844204 91.32833839 226.60049266 89.87084961 228.04077148 C87.75943637 230.12795111 85.65452668 232.22150173 83.55078125 234.31640625 C82.89870193 234.95816299 82.24662262 235.59991974 81.57478333 236.26112366 C80.97042953 236.86532639 80.36607574 237.46952911 79.7434082 238.09204102 C79.21221878 238.61878922 78.68102936 239.14553741 78.13374329 239.68824768 C74.76508297 243.64241634 74.38942447 247.09273444 74.48046875 252.125 C74.84049243 255.04693133 76.03626992 256.95612114 77.75 259.3125 C77.75 259.9725 77.75 260.6325 77.75 261.3125 C81.19313158 262.46021053 83.85064814 262.44301303 87.48387146 262.45053101 C88.17217185 262.45335229 88.86047223 262.45617357 89.56963021 262.45908034 C91.88163656 262.46742914 94.19359503 262.46876487 96.50561523 262.47021484 C98.16144445 262.47488312 99.81727238 262.48002671 101.47309875 262.48561096 C105.04330258 262.4968969 108.61349804 262.50532894 112.18371391 262.51173019 C117.83711219 262.52241516 123.4904507 262.54266386 129.14381409 262.56484985 C145.22174321 262.62674926 161.2996696 262.68070336 177.37768555 262.71386719 C186.25429679 262.73225722 195.1308086 262.76125215 204.00734669 262.8018719 C208.70146571 262.82287666 213.39545974 262.83838979 218.08962822 262.84067917 C222.51297935 262.84283883 226.93607073 262.85884154 231.35934258 262.88506889 C232.97491012 262.89221469 234.59050929 262.89438602 236.20608902 262.89096642 C247.9450686 262.87010507 259.16856167 263.5606497 269.4375 269.8125 C270.43136719 270.4003125 271.42523437 270.988125 272.44921875 271.59375 C274.75 273.3125 274.75 273.3125 275.75 276.3125 C276.41 276.3125 277.07 276.3125 277.75 276.3125 C285.2444347 285.64894033 289.0429344 296.35285682 287.75 308.3125 C286.45701826 316.52293403 284.00601397 322.86080513 278.75 329.3125 C278.24726562 329.93898438 277.74453125 330.56546875 277.2265625 331.2109375 C270.34530602 338.8978045 259.45257887 343.84256539 249.21644402 344.56024647 C247.96100351 344.55928313 246.70556301 344.5583198 245.41207886 344.55732727 C244.70725471 344.55959184 244.00243056 344.56185642 243.2762481 344.56418961 C240.93260663 344.56945429 238.58923349 344.56068018 236.24560547 344.55200195 C234.55812495 344.55311567 232.87064484 344.55517478 231.1831665 344.55810547 C227.55842806 344.5628172 223.93375446 344.56171865 220.30901718 344.55632973 C214.57739353 344.54870906 208.84589435 344.55938667 203.11428833 344.5735321 C186.81918834 344.61124409 170.5241456 344.62944369 154.22900391 344.61791992 C145.22239169 344.61170755 136.21598102 344.62325988 127.20941842 344.65436524 C121.51130239 344.6730346 115.81375664 344.66968782 110.11564994 344.65019763 C106.57315465 344.64332258 103.03096969 344.65725893 99.48853302 344.67714691 C97.84582242 344.68219943 96.20305989 344.67869572 94.56039047 344.66601372 C92.3174783 344.64992774 90.0767667 344.66452539 87.83395386 344.6867218 C86.57926741 344.68688954 85.32458096 344.68705729 84.0318737 344.68723011 C79.86582931 345.48095417 78.39990249 347.07988105 75.75 350.3125 C73.73468873 354.34312254 74.08448555 358.9463614 74.75 363.3125 C76.43529088 366.46158287 78.74161537 368.66294767 81.3371582 371.08764648 C82.40593563 372.15233862 82.40593563 372.15233862 83.49630451 373.2385397 C85.06142514 374.79300849 86.63852533 376.33548524 88.22583389 377.8672905 C90.82025303 380.38055549 93.36960059 382.93294809 95.91122437 385.49954224 C101.1791641 390.81338766 106.48422307 396.08870614 111.79476714 401.35986638 C114.45775273 404.00508668 117.11642078 406.65463762 119.77522278 409.30406189 C128.78001475 418.27581374 137.7894124 427.24290932 146.80883789 436.19995117 C151.82284507 441.17936697 156.8314173 446.16418355 161.83408624 451.15499109 C164.97955201 454.29241494 168.13142937 457.42319777 171.28837144 460.54907143 C173.70901882 462.94986101 176.11971469 465.36056701 178.53198242 467.76977539 C179.39589096 468.62132706 180.2597995 469.47287872 181.14988708 470.35023499 C189.5832124 478.81180233 194.07506416 485.27616599 194.13500977 497.47436523 C193.97705005 504.57230627 191.85777547 508.96850407 187.10546875 514.08203125 C179.9214201 520.74714185 173.74019827 521.64737161 164.15234375 521.7109375 C156.62408554 520.82932747 152.22186386 516.29690612 147 511.25 C146.29770264 510.58186279 145.59540527 509.91372559 144.87182617 509.2253418 C140.118947 504.68644317 135.44497161 500.07517951 130.86328125 495.36328125 C128.7191046 493.20642217 128.7191046 493.20642217 125.98046875 491.16796875 C125.24441406 490.55566406 124.50835938 489.94335938 123.75 489.3125 C123.75 488.6525 123.75 487.9925 123.75 487.3125 C123.15955399 487.04704376 122.56910797 486.78158752 121.96076965 486.50808716 C119.68577633 485.27776775 118.1983351 484.00841925 116.37768555 482.18310547 C115.7398967 481.54839325 115.10210785 480.91368103 114.44499207 480.25973511 C113.42614677 479.23011154 113.42614677 479.23011154 112.38671875 478.1796875 C111.67651077 477.4690213 110.9663028 476.7583551 110.23457336 476.02615356 C108.73189043 474.52045094 107.23163732 473.01232002 105.73364258 471.50195312 C103.46154523 469.21173697 101.18168678 466.92948689 98.90039062 464.6484375 C97.43703005 463.18015572 95.97412502 461.71141977 94.51171875 460.2421875 C93.83856125 459.56791718 93.16540375 458.89364685 92.47184753 458.19894409 C89.32659666 455.0226907 86.27632026 451.80973987 83.359375 448.421875 C79.20071322 443.61109276 74.73024233 439.13066732 70.23828125 434.6328125 C69.34763474 433.73883759 68.45698822 432.84486267 67.53935242 431.92379761 C65.66905134 430.04846242 63.79767516 428.17427512 61.92456055 426.30175781 C59.52884671 423.90614637 57.1401347 421.50367873 54.7530489 419.09947395 C52.46095591 416.79359603 50.16168249 414.49490005 47.86328125 412.1953125 C46.58195061 410.90320358 46.58195061 410.90320358 45.2747345 409.58499146 C44.0778022 408.3926741 44.0778022 408.3926741 42.85668945 407.17626953 C41.80914238 406.12658493 41.80914238 406.12658493 40.74043274 405.05569458 C36.97250644 401.75579472 33.91893279 400.8594812 28.84765625 400.9921875 C25.11499001 401.56216633 22.81286371 403.10723813 19.75 405.3125 C17.33065407 408.81372225 17.49956236 412.07945702 17.4984436 416.24928284 C17.49547346 416.94731032 17.49250333 417.6453378 17.48944318 418.36451763 C17.48180496 420.70346309 17.48829655 423.0421573 17.49462891 425.38110352 C17.4918788 427.05840729 17.48819878 428.73570976 17.48365784 430.41300964 C17.47554353 434.02632468 17.47337803 437.63957782 17.47560501 441.25290108 C17.47843883 446.97333449 17.46408185 452.69364445 17.44662476 458.41404724 C17.39960969 474.68136731 17.37567004 490.94867947 17.36914062 507.21606445 C17.36538258 516.1996225 17.34729052 525.18304125 17.31404626 534.16653961 C17.2938894 539.84534334 17.29143447 545.52378634 17.30232644 551.20261109 C17.3049456 554.74864132 17.2908703 558.29446447 17.27224541 561.84044075 C17.26695165 563.47578677 17.26837162 565.11117161 17.27728081 566.74650192 C17.34771882 580.81954387 14.9082611 592.76494428 4.8671875 603.28515625 C-4.06238738 611.53188128 -13.77588759 614.79527544 -25.90234375 614.55859375 C-34.90799474 613.89656806 -41.53546345 611.33242932 -48.25 605.3125 C-49.095625 604.57 -49.94125 603.8275 -50.8125 603.0625 C-61.65055758 590.83494785 -63.6982833 580.27565753 -63.60302734 564.48925781 C-63.60385918 562.79162986 -63.60607855 561.09400212 -63.60957336 559.39637756 C-63.61450443 555.75581373 -63.61046315 552.11541155 -63.59955978 548.47486115 C-63.58314956 542.71785379 -63.5916864 536.96104747 -63.60440063 531.20404053 C-63.63446981 515.87432183 -63.63302671 500.54464066 -63.61414778 485.21490741 C-63.60182154 475.12972347 -63.60364836 465.0447682 -63.63253558 454.9596107 C-63.64777766 449.23637821 -63.64027716 443.5137665 -63.61582541 437.79057264 C-63.60576471 434.23389123 -63.61643346 430.67749569 -63.63294029 427.1208477 C-63.63639542 425.47167662 -63.63127995 423.82246201 -63.61697197 422.17334938 C-63.59864525 419.92181215 -63.61100859 417.67243593 -63.63095093 415.42095947 C-63.62981985 414.16149632 -63.62868877 412.90203316 -63.62752342 411.60440445 C-64.53264532 406.81775882 -67.23944329 404.76842038 -71.0625 402 C-74.45290758 400.93444333 -77.78626247 400.58523838 -81.25 401.3125 C-86.93516315 404.43933973 -91.13490344 409.00307676 -95.625 413.625 C-97.06774287 415.1027735 -98.51304131 416.57805652 -99.9609375 418.05078125 C-100.59306152 418.70087158 -101.22518555 419.35096191 -101.87646484 420.02075195 C-103.84993215 421.92621766 -105.85803191 423.71426738 -107.93621826 425.50169373 C-111.99682995 429.04593996 -115.84007083 432.76099254 -119.64404297 436.57714844 C-120.33450211 437.26585526 -121.02496124 437.95456207 -121.73634338 438.66413879 C-123.990793 440.9142292 -126.241615 443.16790717 -128.4921875 445.421875 C-130.06765391 446.99666705 -131.64326868 448.57131069 -133.21902466 450.14581299 C-136.50701837 453.43233811 -139.79321066 456.720651 -143.078125 460.01025391 C-147.29146095 464.2293102 -151.50930219 468.44382955 -155.7284832 472.65703964 C-158.97642584 475.90137405 -162.22198958 479.1480798 -165.46683121 482.39551544 C-167.02185772 483.95120928 -168.57762809 485.50615995 -170.13415146 487.06035614 C-172.30263515 489.2263065 -174.46789816 491.39542558 -176.63232422 493.56542969 C-177.59853951 494.52860863 -177.59853951 494.52860863 -178.58427429 495.51124573 C-179.17286728 496.10265854 -179.76146027 496.69407135 -180.3678894 497.30340576 C-180.87923368 497.81512707 -181.39057796 498.32684837 -181.91741753 498.85407639 C-183.47270858 500.48216764 -183.47270858 500.48216764 -185.25 503.3125 C-185.91 503.3125 -186.57 503.3125 -187.25 503.3125 C-187.91 504.6325 -188.57 505.9525 -189.25 507.3125 C-189.91 507.3125 -190.57 507.3125 -191.25 507.3125 C-191.50523437 507.89902344 -191.76046875 508.48554687 -192.0234375 509.08984375 C-195.07007728 514.61066551 -200.9317396 518.98585471 -206.91796875 520.875 C-214.17274453 522.23602996 -221.96886069 522.59830851 -228.47265625 518.70703125 C-235.31963945 513.33478289 -239.21722118 507.07917146 -241.0625 498.5625 C-241.5921035 492.18262526 -241.19316397 486.10844991 -237.4609375 480.73828125 C-235.15455664 478.14258407 -232.75224684 475.71967667 -230.25 473.3125 C-228.54036805 471.60546627 -226.83202777 469.8971379 -225.125 468.1875 C-224.35929687 467.44242188 -223.59359375 466.69734375 -222.8046875 465.9296875 C-220.82632641 463.90292614 -218.98695645 461.86357907 -217.14868164 459.71557617 C-213.06192844 455.0301038 -208.71693232 450.63537064 -204.31640625 446.24609375 C-203.06125465 444.98950706 -203.06125465 444.98950706 -201.78074646 443.70753479 C-200.02131896 441.94743065 -198.26064347 440.18857323 -196.4987793 438.4309082 C-193.82030589 435.75779028 -191.14721127 433.07937749 -188.47460938 430.40039062 C-186.75552885 428.68197097 -185.03613811 426.96386158 -183.31640625 425.24609375 C-182.52657852 424.45424179 -181.73675079 423.66238983 -180.92298889 422.84654236 C-176.81603702 418.7566781 -172.6231642 414.85187534 -168.23329163 411.06895447 C-164.6242615 407.87270385 -161.24289013 404.44771449 -157.83984375 401.03515625 C-157.06870743 400.26497665 -156.29757111 399.49479706 -155.50306702 398.70127869 C-153.88419847 397.08308627 -152.26657449 395.46364788 -150.65014648 393.84301758 C-148.19431282 391.38182768 -145.73318635 388.92602191 -143.27148438 386.47070312 C-141.68978347 384.88834133 -140.10839283 383.30566933 -138.52734375 381.72265625 C-137.43799782 380.63634666 -137.43799782 380.63634666 -136.3266449 379.52809143 C-126.08572189 370.49845613 -126.08572189 370.49845613 -120.03515625 359.1640625 C-120.70060527 353.82172529 -121.80387635 350.48961958 -125.25 346.3125 C-128.14664718 344.86417641 -130.65741311 345.18447463 -133.89485168 345.18119812 C-134.58567563 345.17908241 -135.27649958 345.17696669 -135.98825759 345.17478687 C-138.31485997 345.16877148 -140.64140834 345.16978814 -142.96801758 345.1706543 C-144.63192843 345.16762359 -146.29583845 345.16410238 -147.95974731 345.16012573 C-151.55070399 345.15222579 -155.14165069 345.14708753 -158.73261452 345.14383507 C-164.41981164 345.13792639 -170.10694612 345.12138446 -175.79411316 345.10249329 C-177.74174591 345.09615527 -179.6893787 345.08982966 -181.63701153 345.08351612 C-183.10050236 345.0787674 -183.10050236 345.0787674 -184.59355867 345.07392275 C-197.83571718 345.03187965 -211.07784761 344.99890805 -224.32006836 344.98657227 C-233.24797427 344.97816995 -242.17572608 344.95559388 -251.1035549 344.9172166 C-255.82514438 344.89751862 -260.54650381 344.88503024 -265.26813698 344.89005089 C-269.71944526 344.89472585 -274.17031923 344.88073781 -278.62154007 344.85303879 C-280.24636217 344.84617295 -281.87122962 344.84595022 -283.49604988 344.85323906 C-298.87935528 344.91522056 -311.83932621 342.34312734 -323.28125 331.36328125 C-331.35466067 322.65699728 -334.76081756 312.9113698 -334.5 301.109375 C-333.60633368 291.11148308 -328.75210191 280.12766245 -321.25 273.3125 C-309.00087486 263.80357982 -296.33550458 262.86682552 -281.37744141 262.95947266 C-279.71054972 262.95864014 -278.04365825 262.95641865 -276.37677002 262.95292664 C-272.81156159 262.94800836 -269.24651861 262.95201052 -265.68132401 262.96294022 C-260.04141796 262.97939607 -254.40171607 262.97079287 -248.7618103 262.95809937 C-233.74741649 262.92807732 -218.7330617 262.9294788 -203.71865308 262.94835222 C-193.8330451 262.96068331 -183.94767037 262.95884071 -174.06208932 262.92996442 C-168.457045 262.91473985 -162.85263505 262.92219627 -157.24763036 262.94667459 C-153.76410209 262.95674459 -150.28086512 262.94605661 -146.79737091 262.92955971 C-145.18409347 262.92610876 -143.57077139 262.93120231 -141.95755386 262.94552803 C-139.75249516 262.9638968 -137.54963297 262.95146174 -135.34463501 262.93154907 C-134.11211313 262.93268015 -132.87959126 262.93381123 -131.60972023 262.93497658 C-127.124552 262.10398114 -125.47295501 260.49512216 -122.25 257.3125 C-121.01197164 254.83644327 -120.90409036 252.95342188 -120.75 250.1875 C-120.6778125 249.27742187 -120.605625 248.36734375 -120.53125 247.4296875 C-122.64236178 238.27388749 -134.11902101 230.29761842 -140.68359375 223.74609375 C-141.88768327 222.541329 -143.09162444 221.33641598 -144.29542542 220.13136292 C-146.80771625 217.61760542 -149.3217869 215.10564563 -151.8371582 212.5949707 C-155.04232496 209.39550058 -158.24298016 206.19156082 -161.44230556 202.98625088 C-163.9242143 200.50070855 -166.40852464 198.01757758 -168.89354134 195.5351429 C-170.07388515 194.35546062 -171.253502 193.17505046 -172.43234062 191.99386406 C-177.99663412 186.42091939 -183.55938456 180.90435294 -189.55088806 175.78477478 C-192.16407416 173.52045782 -194.58836466 171.10394485 -197.03515625 168.66015625 C-197.53994003 168.15632919 -198.04472382 167.65250214 -198.56480408 167.13340759 C-199.61872962 166.08015476 -200.67142499 165.02566955 -201.72290039 163.9699707 C-203.30959946 162.37791034 -204.90157742 160.7912701 -206.49414062 159.20507812 C-211.37574987 154.32627862 -216.1383869 149.40121303 -220.62475586 144.15161133 C-224.18905137 140.1182873 -228.13021485 136.43441048 -231.99609375 132.69335938 C-237.94371431 126.84828399 -240.70391437 122.66813614 -241.25 114.2265625 C-241.25 105.2876291 -238.80643568 99.46167496 -233 92.6875 C-226.30643347 86.90669254 -220.83725796 85.85772434 -212.0078125 85.68359375 C-201.25190379 87.48369905 -194.53364494 94.31343385 -187.24169922 101.83374023 C-185.60581946 103.51976852 -183.95129448 105.18567955 -182.29296875 106.84960938 C-181.24367609 107.91296283 -180.19545708 108.97737706 -179.1484375 110.04296875 C-178.65483734 110.54193161 -178.16123718 111.04089447 -177.65267944 111.55497742 C-174.25 115.07902549 -174.25 115.07902549 -174.25 117.3125 C-173.26 117.6425 -172.27 117.9725 -171.25 118.3125 C-169.78599548 119.79527283 -169.78599548 119.79527283 -168.20288086 121.72631836 C-163.7361654 126.98610088 -158.88639482 131.81962437 -154.00390625 136.69140625 C-153.02401947 137.67196881 -152.04428099 138.65267959 -151.06468201 139.63352966 C-149.0231736 141.67650213 -146.97989434 143.71768169 -144.93530273 145.75756836 C-142.33547596 148.35169866 -139.74016627 150.95029434 -137.14618015 153.5502634 C-135.12750604 155.57257825 -133.10642267 157.5924719 -131.0846386 159.61167717 C-129.66767676 161.02766246 -128.25270183 162.44563515 -126.83778381 163.86366272 C-122.34657654 168.33874099 -117.81388595 172.6915328 -112.98301697 176.79966736 C-109.91523185 179.47768238 -107.0973347 182.40430932 -104.25 185.3125 C-99.41629114 190.19698176 -94.5235054 194.90021584 -89.25 199.3125 C-87.95821025 200.43735867 -86.66654007 201.56235466 -85.375 202.6875 C-82.25813162 205.50372019 -82.25813162 205.50372019 -78.26171875 206.33203125 C-73.11358266 205.87345778 -69.94376394 205.23012842 -66.25 201.3125 C-63.91714115 197.73778779 -63.99723953 194.61366233 -63.99171448 190.4069519 C-63.98620092 189.36497766 -63.98620092 189.36497766 -63.98057598 188.30195343 C-63.97059687 185.9745023 -63.97474664 183.64729013 -63.97875977 181.31982422 C-63.97437248 179.65074917 -63.96907032 177.9816763 -63.96292114 176.31260681 C-63.9514173 172.71730078 -63.94596142 169.12205372 -63.94503975 165.52672958 C-63.94309865 159.83597204 -63.92504154 154.14533621 -63.90428162 148.45462036 C-63.85509125 134.31481263 -63.82424545 120.17497171 -63.80297852 106.03509521 C-63.78643592 95.05511858 -63.76355454 84.07524599 -63.71995777 73.09533894 C-63.69823397 67.44475118 -63.69011876 61.79436131 -63.69235051 56.14373469 C-63.69067703 52.61744854 -63.67658661 49.09129015 -63.65913773 45.56505013 C-63.65356485 43.93734865 -63.65302828 42.30962038 -63.65807533 40.68191719 C-63.69685867 26.70131361 -61.9108351 14.824539 -52.2109375 4.046875 C-38.39067999 -9.13852969 -15.80443396 -11.03850543 0 0 Z " fill="#FFFFFF" transform="translate(456.25,129.6875)"/>
<path d="M0 0 C244.3160489 0 244.3160489 0 288.1875 42.75 C313.29659506 68.26401383 325.94926225 103.54902204 327 139 C327.03996094 139.8559375 327.07992188 140.711875 327.12109375 141.59375 C328.10114444 178.95097627 314.82555123 217.38148706 289.1875 244.7109375 C288.465625 245.46632813 287.74375 246.22171875 287 247 C286.34 247.73476563 285.68 248.46953125 285 249.2265625 C274.90112937 260.05224578 261.57363799 268.23612184 248 274 C247.34 274 246.68 274 246 274 C254.62546809 292.35446066 263.69164138 310.47997718 272.79350853 328.60105133 C275.40599077 333.80257107 278.01430597 339.00617366 280.62190247 344.21014404 C288.02676748 358.98673328 295.43531765 373.76146774 302.85180664 388.53222656 C306.9702183 396.73458602 311.08437647 404.939064 315.19377023 413.14594531 C317.78567415 418.32165838 320.38280924 423.49470119 322.98382127 428.66584253 C324.59153749 431.86532067 326.19425198 435.0672838 327.79551315 438.26999664 C328.5400258 439.75659281 329.28661131 441.24215287 330.03538322 442.72660828 C331.05408213 444.74692859 332.06538607 446.77078123 333.07487488 448.79571533 C333.64316104 449.92822346 334.2114472 451.06073158 334.79695415 452.22755814 C336 455 336 455 336 458 C302.67 458 269.34 458 235 458 C231.37 450.41 227.74 442.82 224 435 C221.11020716 429.22027975 221.11020716 429.22027975 218.2109375 423.4453125 C210.75949779 408.53543642 203.63484444 393.46278646 196.6875 378.3125 C193.28602271 370.89521536 189.8359907 363.52280982 186.140625 356.24755859 C179.48654966 343.11860811 173.23690218 329.78143211 166.89453125 316.5 C166.16133667 314.96484741 166.16133667 314.96484741 165.41333008 313.39868164 C164.5045915 311.49471028 163.59679804 309.59028739 162.69018555 307.68530273 C162.0701062 306.38508179 162.0701062 306.38508179 161.4375 305.05859375 C161.08558594 304.31923584 160.73367188 303.57987793 160.37109375 302.81811523 C158.28363077 298.52759081 156.13382762 294.26765524 154 290 C122.32 289.505 122.32 289.505 90 289 C90.00523682 294.08398193 90.01047363 299.16796387 90.01586914 304.40600586 C90.03240012 321.15787772 90.04352007 337.9097499 90.05181217 354.66162777 C90.0569756 364.823495 90.06401917 374.98535452 90.07543945 385.1472168 C90.08538488 394.00093626 90.09185309 402.85465014 90.09408849 411.70837504 C90.09539584 416.39937535 90.09848321 421.09035969 90.10573006 425.7813549 C90.11248805 430.19139252 90.11461742 434.60140751 90.11310768 439.01144981 C90.11338411 440.63487623 90.11539054 442.25830336 90.11920547 443.88172531 C90.12413928 446.0884505 90.12299947 448.29508883 90.12025452 450.5018158 C90.12117631 451.73978377 90.1220981 452.97775175 90.12304783 454.25323391 C90 457 90 457 89 458 C59.63 458 30.26 458 0 458 C0 306.86 0 155.72 0 0 Z M90 75 C89.97667207 93.62761115 89.95902135 112.25521935 89.94818783 130.88284206 C89.94302464 139.53135605 89.93598152 148.17986097 89.92456055 156.82836914 C89.91461439 164.36364579 89.90814674 171.89891588 89.90591151 179.43419892 C89.90460428 183.42655852 89.9015177 187.41889936 89.89426994 191.41125298 C89.8875108 195.16467098 89.88538282 198.91806239 89.88689232 202.6714859 C89.88661594 204.05302894 89.88461019 205.43457281 89.88079453 206.81611061 C89.87585901 208.69437145 89.87760204 210.57264638 89.87974548 212.45091248 C89.87882369 213.50452186 89.8779019 214.55813124 89.87695217 215.64366817 C89.7342169 217.9573068 89.7342169 217.9573068 91 219 C93.26067257 219.11561688 95.52501295 219.15973641 97.78857422 219.17700195 C98.49947205 219.18357315 99.21036987 219.19014435 99.94281006 219.19691467 C102.31343696 219.21673336 104.6839995 219.22834372 107.0546875 219.23828125 C107.86853031 219.24235678 108.68237312 219.2464323 109.52087784 219.25063133 C113.84806313 219.27155173 118.17521638 219.28581417 122.50244141 219.29516602 C126.92313109 219.30610136 131.34329915 219.34032998 135.7638073 219.38033772 C139.19935871 219.40684031 142.63479381 219.41488828 146.07043839 219.41844749 C147.69592848 219.42324611 149.32141587 219.4346611 150.94680405 219.45348549 C174.23047623 219.7058593 197.66998007 214.72665725 215.1875 198.4375 C230.24907034 182.68151704 234.65441447 162.38633637 234.25 141.23828125 C233.57666688 122.64418706 226.76181248 105.56207796 213.078125 92.6796875 C205.99469311 86.95435721 198.28204022 82.83869482 189.8125 79.625 C189.1841626 79.38644287 188.5558252 79.14788574 187.90844727 78.90209961 C176.35932303 74.7717614 165.19979324 74.73144448 153.0859375 74.8046875 C151.2617712 74.80842372 149.43760287 74.81126781 147.61343384 74.81326294 C142.84265474 74.82085145 138.07199996 74.84045819 133.30126953 74.8626709 C128.42091554 74.88323304 123.5405412 74.89228671 118.66015625 74.90234375 C109.10671661 74.92370915 99.5533687 74.95778648 90 75 Z " fill="#FFFFFF" transform="translate(1382,108)"/>
<path d="M0 0 C34.98 0 69.96 0 106 0 C109.37480479 7.87454451 109.37480479 7.87454451 110.38427734 11.27368164 C110.6174617 12.05118774 110.85064606 12.82869385 111.09089661 13.62976074 C111.45969185 14.88230652 111.45969185 14.88230652 111.8359375 16.16015625 C112.10689743 17.06761597 112.37785736 17.97507568 112.6570282 18.91003418 C113.25099277 20.90115276 113.84302791 22.89284768 114.43338013 24.88504028 C115.40295146 28.15682111 116.37750684 31.42708269 117.35327148 34.69702148 C118.79651098 39.53452167 120.23788557 44.37257239 121.67822266 49.2109375 C125.34835236 61.5349711 129.04718722 73.85041981 132.74337769 86.16665649 C133.85422428 89.8681999 134.96458599 93.56988857 136.07482243 97.27161503 C142.86208001 119.90079827 149.67418748 142.52243411 156.49599075 165.14122391 C163.76519426 189.24373338 171.01119203 213.35311379 178.2407608 237.46754074 C185.89908875 263.01206425 193.56840158 288.55320329 201.26620483 314.08586121 C201.93452325 316.30262635 202.60276971 318.51941317 203.27099609 320.73620605 C207.89291072 336.06882844 212.51713991 351.40075138 217.14400959 366.73187923 C219.42746463 374.29840853 221.70978409 381.86527991 223.99144268 389.43235111 C225.36770273 393.99646838 226.74452007 398.56041575 228.12277222 403.12393188 C239.10562192 439.49075712 239.10562192 439.49075712 244 457 C242.08935701 458.91064299 239.26172105 458.12014611 236.71983337 458.12442017 C235.81640701 458.12082489 234.91298065 458.11722961 233.98217773 458.11352539 C233.03593536 458.11367142 232.08969299 458.11381744 231.11477661 458.1139679 C227.97102608 458.11326836 224.82733399 458.10547409 221.68359375 458.09765625 C219.51025932 458.09579221 217.33692448 458.09436824 215.16358948 458.09336853 C209.43098805 458.08954221 203.69841177 458.07971097 197.96582031 458.06866455 C192.12109721 458.05845287 186.27637007 458.05387143 180.43164062 458.04882812 C168.954416 458.0380888 157.47721009 458.02101102 146 458 C142.248946 444.69925107 138.71275794 431.35018686 135.26171875 417.96875 C134.73085297 415.91416546 134.19991179 413.8596004 133.66889954 411.80505371 C132.56777905 407.5430127 131.46790952 403.28065131 130.36889648 399.01806641 C128.95828175 393.54755346 127.54390881 388.07801974 126.12857342 382.6087265 C125.03657393 378.38685175 123.94679519 374.16440621 122.85767555 369.94178772 C122.33650677 367.92249643 121.8145768 365.90340145 121.29187584 363.88450623 C120.56687262 361.08309765 119.84492173 358.28092013 119.1237793 355.47851562 C118.9072168 354.6443663 118.6906543 353.81021698 118.4675293 352.95079041 C117 347.22841667 117 347.22841667 117 345 C50.67 345.495 50.67 345.495 -17 346 C-23.4309857 369.26318786 -23.4309857 369.26318786 -29.67382431 392.5743885 C-30.33673963 395.09450454 -31.00230759 397.61390853 -31.66848755 400.13316345 C-33.55481365 407.26741161 -35.43841868 414.40237036 -37.31640625 421.53881836 C-38.48250495 425.9693169 -39.65284191 430.39867726 -40.82593155 434.82732964 C-41.26690507 436.49545326 -41.70626806 438.16400354 -42.1439476 439.83299446 C-42.74935256 442.14112525 -43.36013284 444.44777029 -43.97216797 446.75415039 C-44.14877457 447.43291733 -44.32538116 448.11168427 -44.50733948 448.8110199 C-45.40143887 452.15716829 -46.43451639 454.86903277 -48 458 C-77.37 458 -106.74 458 -137 458 C-135.64044226 451.88199019 -134.18634727 445.96925263 -132.3671875 439.99609375 C-132.10301529 439.11880615 -131.83884308 438.24151855 -131.56666565 437.33764648 C-130.98369755 435.40312023 -130.39922502 433.46904685 -129.81344604 431.53536987 C-128.84160235 428.32725225 -127.87359573 425.11799745 -126.90649414 421.90844727 C-125.62875064 417.66825712 -124.35020308 413.42831149 -123.07077885 409.1886282 C-120.18339779 399.61860785 -117.31113282 390.04407699 -114.44140625 380.46875 C-113.95217947 378.83647649 -113.46295217 377.20420313 -112.97372437 375.57192993 C-112.22530135 373.07482604 -111.47688591 370.57771987 -110.72849464 368.08060646 C-102.13286192 339.40121624 -93.51682571 310.72800436 -84.875 282.0625 C-84.53685146 280.94081547 -84.53685146 280.94081547 -84.19187164 279.79647064 C-80.35152603 267.05779352 -76.50962219 254.31958641 -72.66717529 241.58154297 C-69.54826201 231.24206944 -66.4298941 220.90243168 -63.3125 210.5625 C-63.08977165 209.82377277 -62.8670433 209.08504555 -62.63756561 208.32393265 C-53.99342891 179.65274802 -45.38706148 150.9702828 -36.78677368 122.28591919 C-26.55765896 88.16958153 -16.29363447 54.0638519 -6.00488281 19.9654541 C-5.65071289 18.79156128 -5.29654297 17.61766846 -4.93164062 16.40820312 C-4.62891235 15.40503052 -4.32618408 14.40185791 -4.01428223 13.36828613 C-2.67274311 8.9132267 -1.33693315 4.45644382 0 0 Z M48 90 C36.55937615 134.08940472 36.55937615 134.08940472 25.44116211 178.26089478 C22.32508454 190.83537635 19.13645254 203.38957989 15.88636398 215.93000412 C15.2594666 218.34908589 14.6332643 220.76834664 14.00723267 223.18765259 C12.141916 230.39417003 10.2739876 237.5999493 8.39235497 244.80222607 C7.61328128 247.78907045 6.839104 250.77716914 6.06609726 253.76558876 C5.70238696 255.1670705 5.33651262 256.56799262 4.96835709 257.96831322 C4.46066567 259.90019728 3.96109848 261.83421088 3.46191406 263.76831055 C3.17834045 264.85597214 2.89476685 265.94363373 2.6026001 267.06425476 C1.8324409 270.31682175 1.8324409 270.31682175 2 275 C33.68 275 65.36 275 98 275 C99.51605293 271.96789415 98.40952063 269.9476804 97.57910156 266.6953125 C97.41430203 266.0418217 97.24950251 265.3883309 97.07970905 264.71503735 C96.52343308 262.51658281 95.95701912 260.32086774 95.390625 258.125 C94.99207286 256.55885258 94.59413238 254.99254939 94.19676208 253.42610168 C93.11526417 249.17041235 92.02493058 244.91703053 90.9330101 240.66400528 C89.79119378 236.21047713 88.65747124 231.75488919 87.52270508 227.29956055 C84.92552471 217.10994472 82.31562858 206.92360872 79.70243073 196.73809052 C79.0125556 194.04894202 78.32296712 191.35972019 77.63348389 188.67047119 C73.88131753 174.03588339 70.12858682 159.40144125 66.35839844 144.77148438 C65.7992544 142.6008257 65.240215 140.43014014 64.68128586 138.25942612 C64.32138537 136.86170731 63.96138403 135.46401448 63.6012764 134.06634903 C61.68705866 126.63340625 59.79149515 119.19638168 57.93994141 111.74755859 C57.69401292 110.75882327 57.69401292 110.75882327 57.44311619 109.75011349 C56.66958014 106.63731773 55.89960828 103.52369522 55.13420105 100.40888977 C54.73289726 98.78662727 54.73289726 98.78662727 54.32348633 97.1315918 C54.09075516 96.18422653 53.85802399 95.23686127 53.61824036 94.26078796 C53.07639231 91.98991351 53.07639231 91.98991351 52 90 C50.68 90 49.36 90 48 90 Z " fill="#FFFFFF" transform="translate(2316,109)"/>
<path d="M0 0 C0.77338431 0.00092179 1.54676863 0.00184359 2.34358883 0.00279331 C3.22844967 0.00141865 4.11331051 0.00004398 5.02498531 -0.00137234 C6.49233372 0.00402058 6.49233372 0.00402058 7.98932552 0.00952244 C9.01359646 0.00937641 10.03786739 0.00923038 11.09317684 0.00907993 C14.49665055 0.00977955 17.9000703 0.0175742 21.30353451 0.02539158 C23.65623094 0.02725559 26.00892776 0.02867957 28.36162472 0.0296793 C34.56769531 0.03350584 40.77374266 0.04333728 46.97980404 0.05438328 C53.30711204 0.06459448 59.63442378 0.06917629 65.96173763 0.0742197 C78.38687807 0.08495942 90.81200124 0.10203747 103.23712826 0.12304783 C105.45412253 5.53741899 107.60003079 10.91245658 109.2698431 16.52563572 C109.61981853 17.69353642 109.96979397 18.86143711 110.33037472 20.06472874 C110.88363178 21.93631153 110.88363178 21.93631153 111.44806576 23.84570408 C111.85230586 25.20039528 112.25698693 26.55495497 112.66207027 27.90939426 C113.52938281 30.81234754 114.39388921 33.71611539 115.25614071 36.6205759 C116.63457555 41.263492 118.01932463 45.90450932 119.40534115 50.54516697 C119.88351187 52.14634619 120.36167649 53.74752724 120.83983517 55.34871006 C121.07918474 56.15017775 121.31853432 56.95164543 121.56513691 57.77740002 C122.30138149 60.24356767 123.03700681 62.70991931 123.77248287 65.17631626 C127.17016895 76.5679343 130.58847422 87.95320642 134.02228451 99.33398533 C134.37874554 100.5155499 134.37874554 100.5155499 134.7424078 101.72098446 C136.8192108 108.60439233 138.89738562 115.48738575 140.97632504 122.37014866 C142.2503092 126.58830614 143.52344259 130.8067196 144.79572201 135.02539158 C145.00824171 135.73005936 145.22076141 136.43472713 145.43972111 137.16074848 C149.00119036 148.97502664 152.52602535 160.80005242 156.04314709 172.62759876 C163.21948902 196.75982844 170.48051067 220.86592682 177.76764584 244.96490574 C181.28232515 256.58841359 184.7929684 268.21314091 188.30353451 279.83789158 C188.6505101 280.98678867 188.99748569 282.13568577 189.3549757 283.31939793 C196.14971965 305.81933412 202.92246088 328.32580516 209.65973568 350.84301853 C210.46930703 353.54836485 211.27897803 356.25368132 212.08869076 358.95898533 C212.28852125 359.62675936 212.48835175 360.29453339 212.69423771 360.98254299 C215.83171344 371.46443538 218.99334434 381.9389057 222.16382504 392.41085911 C224.15164764 398.97692402 226.13458817 405.54446053 228.11648846 412.11231518 C229.76178203 417.56312816 231.41335305 423.01198732 233.06953144 428.45950222 C234.08711679 431.81205181 235.09862918 435.16641032 236.10842419 438.52131367 C236.58201023 440.09013963 237.05817384 441.65818997 237.53700542 443.22542286 C238.19166576 445.36934655 238.83733446 447.5157757 239.4807806 449.66308689 C239.84601833 450.86870274 240.21125607 452.07431858 240.58756161 453.31646824 C241.23712826 456.12304783 241.23712826 456.12304783 240.23712826 458.12304783 C208.55712826 458.12304783 176.87712826 458.12304783 144.23712826 458.12304783 C140.86211639 450.24802013 140.86211639 450.24802013 140.03011227 447.01014805 C139.83824337 446.27478825 139.64637447 445.53942844 139.44869137 444.78178501 C139.1516959 443.60891689 139.1516959 443.60891689 138.84870052 442.41235447 C138.63035549 441.56896519 138.41201046 440.7255759 138.18704891 439.85662937 C137.4705389 437.08349915 136.76197973 434.30840451 136.05353451 431.53320408 C135.55221127 429.58601518 135.05040768 427.6389499 134.54814816 425.6920023 C133.22789864 420.56860474 131.91445944 415.44348468 130.60236263 410.31799412 C129.27857569 405.15228597 127.94785859 399.98836418 126.61798763 394.8242197 C124.66029253 387.21643583 122.70443256 379.60818496 120.75495052 371.99829197 C120.4609914 370.85275097 120.4609914 370.85275097 120.16109371 369.68406773 C118.1532254 361.83840436 116.20142046 353.98021663 114.23712826 346.12304783 C70.01712826 346.12304783 25.79712826 346.12304783 -19.76287174 346.12304783 C-22.67099674 357.01304783 -25.57912174 367.90304783 -28.57537174 379.12304783 C-30.3175626 385.63642025 -32.05988799 392.14974674 -33.80584049 398.66211033 C-34.12080007 399.83691393 -34.12080007 399.83691393 -34.44212246 401.03545094 C-37.83592165 413.69126696 -41.23765562 426.3448782 -44.69899845 438.98242283 C-45.157182 440.65561587 -45.61423908 442.3291178 -46.07015324 444.00293064 C-46.68554116 446.26010594 -47.30534758 448.51601046 -47.92693424 450.77148533 C-48.26160709 451.99013279 -48.59627995 453.20878025 -48.9410944 454.46435642 C-49.76287174 457.12304783 -49.76287174 457.12304783 -50.76287174 458.12304783 C-53.50175594 458.21820994 -56.21535115 458.24859377 -58.95452213 458.23657322 C-59.81298237 458.23671925 -60.6714426 458.23686527 -61.55591679 458.23701572 C-64.40747912 458.2363163 -67.258977 458.22852253 -70.11052799 458.22070408 C-72.08208016 458.21884 -74.05363279 458.21741605 -76.02518559 458.21641636 C-81.22513441 458.21259034 -86.42505549 458.20275935 -91.62499332 458.19171238 C-96.92680835 458.18150005 -102.22862785 458.17691912 -107.53044987 458.17187595 C-117.94126938 458.16113715 -128.35206826 458.14405973 -138.76287174 458.12304783 C-139.8536401 454.85074275 -139.72267907 454.22154154 -138.73748112 451.07788181 C-138.48488529 450.25639149 -138.23228947 449.43490116 -137.97203922 448.58851719 C-137.54365757 447.24242626 -137.54365757 447.24242626 -137.10662174 445.86914158 C-136.66688023 444.45011791 -136.66688023 444.45011791 -136.21825504 443.0024271 C-135.57850334 440.94109409 -134.9347914 438.88098706 -134.28765202 436.8219614 C-132.88961404 432.37263684 -131.51105092 427.91735456 -130.13146305 423.46228123 C-129.41124968 421.13687678 -128.69008404 418.81176707 -127.9680109 416.48693943 C-124.40710571 405.01315532 -120.95125893 393.50902367 -117.51287174 381.99804783 C-116.2531002 377.78691714 -114.99243649 373.57605379 -113.73162174 369.36523533 C-113.4107056 368.29316334 -113.08978947 367.22109135 -112.7591486 366.11653233 C-109.24859572 354.39483086 -105.71078426 342.6813781 -102.1737299 330.96765232 C-94.19313186 304.53776434 -86.24993028 278.09676518 -78.3208704 251.65137196 C-69.65264218 222.74072871 -60.9749902 193.83299838 -52.26287174 164.93554783 C-52.03908722 164.19322407 -51.8153027 163.45090031 -51.58473682 162.68608189 C-47.03637358 147.59869544 -42.48464736 132.51232537 -37.92969608 117.42692661 C-36.07364891 111.2799104 -34.21809265 105.13274603 -32.36275196 98.98551655 C-31.7678882 97.01466792 -31.17292904 95.0438481 -30.57796574 93.07302952 C-26.59083454 79.86428993 -22.61443552 66.65252956 -18.68084049 53.42773533 C-18.3601157 52.34946476 -18.03939091 51.27119419 -17.70894718 50.16024876 C-16.23614182 45.20590505 -14.76596284 40.25080157 -13.29998112 35.29443455 C-10.7368558 26.64117195 -8.1334873 18.00193834 -5.43865299 9.38867283 C-5.18464222 8.57050083 -4.93063145 7.75232883 -4.66892338 6.90936375 C-2.54569094 0.17768833 -2.54569094 0.17768833 0 0 Z M45.23712826 90.12304783 C44.99259914 91.09307743 44.74807003 92.06310703 44.49613094 93.06253147 C41.37099937 105.45842812 38.24261527 117.85350261 35.11212826 130.24804783 C34.86134014 131.24103508 34.61055202 132.23402233 34.35216427 133.25710011 C28.13353208 157.87658117 21.89133139 182.4885973 15.48712826 207.06054783 C11.62490542 221.89071435 7.77538599 236.72345059 4.03339291 251.58450413 C3.5926929 253.33317917 3.15044134 255.08146407 2.70648861 256.82931614 C2.11036082 259.17866051 1.52040748 261.52946227 0.93244076 263.88086033 C0.75824612 264.56335346 0.58405148 265.2458466 0.40457821 265.94902134 C-0.39029076 269.1594845 -0.76287174 271.78003889 -0.76287174 275.12304783 C30.91712826 275.12304783 62.59712826 275.12304783 95.23712826 275.12304783 C96.36786937 271.73082449 96.08993114 270.72154163 95.19586849 267.34692478 C94.94012051 266.36450306 94.68437252 265.38208134 94.4208746 264.36988926 C94.13207424 263.2945644 93.84327389 262.21923954 93.54572201 261.11132908 C93.24950954 259.98077595 92.95329708 258.85022282 92.64810848 257.6854105 C91.83435494 254.58305234 91.01362341 251.48263376 90.19044018 248.38276768 C88.78988242 243.09558109 87.41091851 237.8026826 86.02820301 232.51080799 C85.49088639 230.45519325 84.95263479 228.39982463 84.41438961 226.34445286 C80.84955746 212.71465984 77.44103259 199.04692442 74.04962826 185.37304783 C69.23977616 166.00908893 64.31099173 146.68051269 59.23053646 127.38574314 C58.77304635 125.64715004 58.31560696 123.9085436 57.85822201 122.16992283 C57.53127094 120.92882755 57.53127094 120.92882755 57.19771481 119.66265965 C55.33851725 112.57648258 53.56251355 105.47038443 51.82585812 98.3532114 C50.83934083 94.13150622 50.83934083 94.13150622 49.23712826 90.12304783 C47.91712826 90.12304783 46.59712826 90.12304783 45.23712826 90.12304783 Z " fill="#FFFFFF" transform="translate(1890.7628717422485,108.87695217132568)"/>
<path d="M0 0 C35.52592988 -0.02202602 71.05185334 -0.04049763 106.57778808 -0.05106533 C110.7674349 -0.05231611 114.95708171 -0.05361042 119.14672852 -0.05493164 C119.98084773 -0.05519395 120.81496694 -0.05545626 121.67436249 -0.05572652 C135.19842925 -0.06008346 148.72249179 -0.06797113 162.24655604 -0.0771528 C176.11294276 -0.08648868 189.97932727 -0.09205547 203.84571701 -0.09408849 C212.40905373 -0.09546386 220.97237849 -0.09981516 229.53571153 -0.10791647 C235.39976582 -0.11318313 241.26381389 -0.11480448 247.12787037 -0.11350138 C250.51627332 -0.11285787 253.90465531 -0.11387692 257.29305458 -0.11920547 C260.95799567 -0.12413517 264.62288439 -0.12300098 268.28782654 -0.12025452 C269.37048827 -0.12316736 270.45315 -0.1260802 271.56861967 -0.12908131 C273.02940729 -0.12609474 273.02940729 -0.12609474 274.51970577 -0.12304783 C275.36686183 -0.12342755 276.21401789 -0.12380727 277.08684534 -0.1241985 C279 0 279 0 280 1 C280.09494903 3.37305096 280.12558011 5.71674766 280.11352539 8.09008789 C280.11370619 9.22025786 280.11370619 9.22025786 280.11389065 10.37325954 C280.11314157 12.82308801 280.10551361 15.27284131 280.09765625 17.72265625 C280.09618681 19.23075321 280.09516611 20.73885067 280.09460449 22.24694824 C280.0893518 27.85213992 280.07539071 33.45732069 280.0625 39.0625 C280.041875 51.581875 280.02125 64.10125 280 77 C248.65 77 217.3 77 185 77 C185.33 176.99 185.66 276.98 186 380 C216.36 380 246.72 380 278 380 C278.66 380.33 279.32 380.66 280 381 C280.02312428 390.89189376 280.04091552 400.78378114 280.05181217 410.67569637 C280.05704082 415.2684264 280.06413812 419.861138 280.07543945 424.45385742 C280.086269 428.88233688 280.09227698 433.31079856 280.09487724 437.73929024 C280.09673137 439.43265628 280.10035175 441.12602129 280.10573006 442.81937981 C280.1129414 445.18291232 280.1139909 447.54637045 280.11352539 449.90991211 C280.11712067 450.61697296 280.12071594 451.32403381 280.12442017 452.05252075 C280.11405216 456.88594784 280.11405216 456.88594784 279 458 C277.51532268 458.09766155 276.02600235 458.12555479 274.53811646 458.12584114 C273.08347898 458.12975276 273.08347898 458.12975276 271.59945488 458.13374341 C269.98232188 458.13039732 269.98232188 458.13039732 268.33251953 458.12698364 C267.19714312 458.12854363 266.0617667 458.13010362 264.89198494 458.13171089 C261.72652444 458.135024 258.56110187 458.13381182 255.39564228 458.13072467 C251.98729048 458.12847233 248.57894402 458.13194935 245.17059326 458.13470459 C238.48809981 458.13916307 231.80561755 458.13818548 225.12312365 458.13529195 C219.69456928 458.13303822 214.26601807 458.13272526 208.83746338 458.13381577 C208.06633717 458.133969 207.29521096 458.13412223 206.50071728 458.13428011 C204.93443855 458.13459982 203.36815981 458.13492403 201.80188107 458.1352527 C187.09732506 458.13810772 172.39277526 458.13482013 157.68822026 458.12945233 C145.05711768 458.12498427 132.42602429 458.1257602 119.79492188 458.13037109 C105.14480627 458.13571647 90.49469614 458.13783303 75.8445797 458.13475883 C74.28389867 458.13444026 72.72321765 458.13412589 71.16253662 458.13381577 C70.39454967 458.13366149 69.62656271 458.13350721 68.83530343 458.13334826 C63.41007807 458.132483 57.98485617 458.13394619 52.55963135 458.13629532 C45.95267855 458.13909311 39.34573764 458.1383555 32.73878622 458.13301457 C29.36455474 458.13037727 25.99034311 458.12937297 22.61611176 458.13266373 C18.9665478 458.13537199 15.31704074 458.13199809 11.66748047 458.12698364 C10.5893918 458.12921436 9.51130314 458.13144509 8.40054512 458.13374341 C7.4307868 458.13113566 6.46102848 458.12852791 5.46188354 458.12584114 C4.61830732 458.12567879 3.7747311 458.12551644 2.90559196 458.12534916 C1 458 1 458 0 457 C-0.09494733 454.62699131 -0.12559319 452.28321297 -0.11352539 449.90991211 C-0.11367142 449.16849472 -0.11381744 448.42707733 -0.1139679 447.66319275 C-0.11326865 445.20121379 -0.10547574 442.73930957 -0.09765625 440.27734375 C-0.09579211 438.57483461 -0.09436819 436.87232493 -0.09336853 435.16981506 C-0.08954302 430.68006927 -0.07971247 426.19035562 -0.06866455 421.70062256 C-0.05845113 417.12268509 -0.05387106 412.54474244 -0.04882812 407.96679688 C-0.03809022 398.97785043 -0.02101341 389.98892788 0 381 C30.72659974 374.85468005 62.66489367 380 94 380 C94 280.34 94 180.68 94 78 C47.47 77.505 47.47 77.505 0 77 C0 51.59 0 26.18 0 0 Z " fill="#FFFFFF" transform="translate(1047,108)"/>
<path d="M0 0 C9.24117638 7.80458095 14.64541259 16.96580402 16.23828125 29.01953125 C16.58318429 40.2145092 13.44189044 50.35755245 6.21484375 58.953125 C-2.45158037 68.01347749 -11.91104908 72.52339225 -24.4609375 73.11328125 C-35.6960506 72.79417745 -45.20953663 68.34287844 -53.51171875 60.89453125 C-60.86213048 53.02281372 -64.69685535 42.51588705 -64.7890625 31.859375 C-64.2966291 21.06371978 -61.21470555 11.98770147 -53.76171875 4.01953125 C-38.46495136 -9.69043454 -17.18191046 -12.32139831 0 0 Z " fill="#FFFFFF" transform="translate(850.76171875,400.98046875)"/>
<path d="M0 0 C8.43212756 7.16334348 13.9813166 16.66021361 15.09765625 27.7734375 C15.43554763 41.31847454 11.64157713 50.9718069 2.625 61 C-4.79978279 68.06339956 -15.14889616 72.24973772 -25.34375 72.33984375 C-37.46684047 71.78750668 -46.62439693 67.95257556 -55.25 59.3125 C-63.71619042 48.66610641 -66.60650064 37.81654009 -65.25 24.3125 C-62.76488541 13.44538874 -56.56793852 3.55551881 -47.25 -2.6875 C-31.35686585 -10.75953919 -14.56232211 -10.87840134 0 0 Z " fill="#FFFFFF" transform="translate(65.25,401.6875)"/>
<path d="M0 0 C9.23262055 6.44846455 16.61445648 15.48207053 18.7578125 26.71484375 C19.59976518 39.09568885 18.68014737 49.81443023 10.515625 59.8046875 C2.48707772 68.52904221 -5.59310223 74.10561257 -17.625 74.953125 C-29.6307726 75.19123531 -39.2058675 73.02366341 -48.2421875 64.71484375 C-56.88162066 56.18163313 -61.19046467 46.89690316 -61.4921875 34.71484375 C-61.19026359 22.52466603 -56.95418402 13.82271483 -48.66796875 4.98046875 C-45.16973478 1.71319709 -41.61911354 -0.39947533 -37.2421875 -2.28515625 C-36.55769531 -2.60226563 -35.87320312 -2.919375 -35.16796875 -3.24609375 C-23.73415042 -7.85343644 -10.53206078 -6.03666898 0 0 Z " fill="#FFFFFF" transform="translate(454.2421875,5.28515625)"/>
<path d="M0 0 C8.16747923 6.09319879 13.63985304 14.91111082 15.75 24.875 C16.91019659 36.71618165 15.66533254 46.88760092 8.4375 56.6875 C1.63396142 64.7568132 -6.59932171 70.91303295 -17.25 72.875 C-30.41334605 73.89788422 -40.93744104 71.2501702 -51.25 62.875 C-59.19748804 55.50682772 -63.55876446 45.33160504 -64.43359375 34.62890625 C-64.81153075 21.80127969 -60.2832082 12.37045554 -51.60546875 3.140625 C-37.24790308 -10.66930549 -16.2425835 -10.3317486 0 0 Z " fill="#FFFFFF" transform="translate(457.25,794.125)"/>
<path d="M0 0 C7.3425 -0.04125 14.685 -0.0825 22.25 -0.125 C24.54227539 -0.14320801 26.83455078 -0.16141602 29.19628906 -0.18017578 C58.09819063 -0.31649016 58.09819063 -0.31649016 66 7 C72.32688657 15.0984148 72.72914212 23.0211692 72 33 C70.42096365 39.22102274 66.3473074 43.60902458 61 47 C57.72971694 48.53727175 54.41795691 49.83087993 51 51 C51.90878906 51.71349609 51.90878906 51.71349609 52.8359375 52.44140625 C60.66383244 58.98070926 65.67001992 66.40388799 71 75 C71.80102674 76.26238981 72.603087 77.5241245 73.40625 78.78515625 C79 87.65534856 79 87.65534856 79 90 C60.69084995 91.77481593 60.69084995 91.77481593 55.24609375 88.18359375 C53.58864007 85.83881587 52.24351161 83.49479121 50.99755859 80.91015625 C48.92584191 76.94316865 46.26299178 73.3212155 43.75 69.625 C42.74403544 68.09685171 41.73879375 66.56822726 40.734375 65.0390625 C36.39716979 58.44645683 36.39716979 58.44645683 30 54 C26.04 53.67 22.08 53.34 18 53 C18 65.21 18 77.42 18 90 C12.06 90 6.12 90 0 90 C0 60.3 0 30.6 0 0 Z M18 16 C18 23.26 18 30.52 18 38 C22.18789248 38.08117236 26.37420034 38.14059104 30.5625 38.1875 C31.74392578 38.21263672 32.92535156 38.23777344 34.14257812 38.26367188 C40.51435901 38.31721625 45.45457602 38.29769954 51 35 C53.52864752 31.6021299 54.23849301 29.01944223 53.9375 24.875 C52.96298767 20.8470157 52.24333221 19.45706985 49 17 C46.12981559 15.56490779 43.66456277 15.88841494 40.4609375 15.90234375 C38.50800781 15.90717773 38.50800781 15.90717773 36.515625 15.91210938 C35.13541601 15.92046534 33.75520768 15.92893029 32.375 15.9375 C30.98698074 15.94251499 29.59895978 15.9470779 28.2109375 15.95117188 C24.80727327 15.96299015 21.4036313 15.9809261 18 16 Z " fill="#FFFFFF" transform="translate(2391,671)"/>
<path d="M0 0 C10.61195786 8.37890155 15.21815643 18.52946143 16.78515625 31.78125 C17.9030782 46.74898284 15.72383791 60.14580215 6.3671875 72.17578125 C-2.4507889 81.81332861 -12.55019214 85.00775741 -25.27734375 85.65234375 C-38.0014065 85.66605502 -48.68572563 82.4225095 -58.0859375 73.66796875 C-67.56083912 63.1742605 -70.2257183 50.32150564 -70.0546875 36.58203125 C-69.33992154 22.85485926 -65.58859209 11.6177736 -55.90234375 1.65625 C-40.91076807 -11.17437783 -15.82484013 -11.38718655 0 0 Z M-45.90234375 16.65625 C-51.9152796 27.01896924 -52.82664749 40.62270704 -49.77734375 52.15625 C-47.53025524 58.39349569 -44.02698996 63.65136525 -38.27734375 67.09375 C-31.61314152 70.17902881 -24.75645603 70.861006 -17.71484375 68.46875 C-11.15034299 65.66285007 -6.68428613 61.2366137 -3.90234375 54.65625 C-0.1239957 44.09404977 -0.40047993 30.91049538 -4.90234375 20.65625 C-8.72053263 13.78351002 -13.22649284 10.42317222 -20.64453125 8.1953125 C-30.0536156 5.94885291 -39.73446113 9.23877038 -45.90234375 16.65625 Z " fill="#FFFFFF" transform="translate(2357.90234375,677.34375)"/>
<path d="M0 0 C52 0 52 0 61.625 8.25 C62.40875 9.1575 63.1925 10.065 64 11 C64.74056641 11.81210937 64.74056641 11.81210937 65.49609375 12.640625 C72.12252795 20.50641722 74.55908656 30.87736235 75 41 C75.0515625 41.74121094 75.103125 42.48242188 75.15625 43.24609375 C75.69258554 56.85560811 72.15883852 71.26019272 62.79296875 81.46875 C46.17027346 95.66503879 18.19387642 90 0 90 C0 60.3 0 30.6 0 0 Z M18 16 C18 35.47 18 54.94 18 75 C34.99872569 76.32366689 34.99872569 76.32366689 50.6796875 69.83203125 C57.40133592 60.50524691 57.10051557 46.97133085 56 36 C54.72589004 29.06292492 52.70030062 23.50271765 47.4375 18.625 C38.39819927 12.59879951 30.55249307 16 18 16 Z " fill="#FFFFFF" transform="translate(1224,671)"/>
<path d="M0 0 C52.72546012 0 52.72546012 0 63.1875 9.5625 C67.51688343 14.12153638 69.82285748 19.15888593 72 25 C72.4125 26.093125 72.825 27.18625 73.25 28.3125 C76.6671365 45.11342111 75.1872417 61.92598547 66.3125 76.75 C60.30312101 85.25327127 53.11126251 87.24238295 43 90 C28.81 90 14.62 90 0 90 C0 60.3 0 30.6 0 0 Z M18 16 C18 35.47 18 54.94 18 75 C35.28698375 76.36699739 35.28698375 76.36699739 50.4375 69.75 C57.11931195 57.99001097 57.90899727 43.3245335 54.74609375 30.21484375 C51.94603379 21.90262387 49.25058219 20.1252911 41 16 C33.41 16 25.82 16 18 16 Z " fill="#FFFFFF" transform="translate(1994,671)"/>
<path d="M0 0 C5.32269056 4.03115535 8.55391418 9.42268797 10.15625 15.83203125 C10.15625 17.81203125 10.15625 19.79203125 10.15625 21.83203125 C4.21625 22.16203125 -1.72375 22.49203125 -7.84375 22.83203125 C-8.72265625 20.5859375 -9.6015625 18.33984375 -10.48046875 16.09375 C-12.24605058 13.16460422 -13.71879773 12.21068666 -16.84375 10.83203125 C-20.21841812 10.35891159 -20.21841812 10.35891159 -23.78125 10.45703125 C-25.55822266 10.44542969 -25.55822266 10.44542969 -27.37109375 10.43359375 C-31.19312171 10.87211664 -33.61853636 11.74908078 -36.84375 13.83203125 C-38.08660895 17.28077796 -38.08660895 17.28077796 -37.84375 20.83203125 C-32.97506251 27.0700371 -23.10830902 28.34154272 -15.84375 30.26953125 C-5.14179678 33.16198073 3.73953842 36.20696387 10.15625 45.83203125 C13.79500966 53.59721939 13.93404402 61.59082091 11.09375 69.6171875 C8.12228684 76.63726923 3.26559604 81.56731915 -3.7043457 84.65673828 C-10.00369597 87.03591027 -15.96771926 87.37370598 -22.65625 87.33203125 C-23.71706787 87.32631104 -24.77788574 87.32059082 -25.87084961 87.31469727 C-35.81393681 87.08769312 -43.28254839 85.37334394 -50.84375 78.51953125 C-56.37638189 72.27344562 -59.02018221 65.11615434 -59.84375 56.83203125 C-57.72449396 54.71277521 -53.2241407 55.41372108 -50.28125 55.26953125 C-49.47494141 55.22634766 -48.66863281 55.18316406 -47.83789062 55.13867188 C-45.84006195 55.03227863 -43.8419293 54.93162237 -41.84375 54.83203125 C-41.61300781 55.5075 -41.38226562 56.18296875 -41.14453125 56.87890625 C-38.56054329 64.03304882 -38.56054329 64.03304882 -32.84375 68.83203125 C-26.55277013 71.69156756 -19.97824385 71.77180584 -13.46875 69.58203125 C-10.25656377 68.18709779 -8.25308052 67.17919123 -6.84375 63.83203125 C-6.40296715 60.75771034 -6.13344166 57.86901889 -6.84375 54.83203125 C-9.89290121 52.04296527 -12.87627813 51.04328495 -16.82421875 49.96484375 C-17.98888672 49.63613281 -19.15355469 49.30742188 -20.35351562 48.96875 C-22.78518445 48.29981508 -25.21746788 47.63310991 -27.65039062 46.96875 C-36.26077447 44.53301126 -44.88827247 41.97852723 -50.78125 34.83203125 C-51.59916016 33.87296875 -51.59916016 33.87296875 -52.43359375 32.89453125 C-56.50595488 26.93828006 -56.68869643 20.83550475 -55.84375 13.83203125 C-53.43355521 6.34284229 -49.62721903 1.54117352 -42.75390625 -2.3515625 C-30.15719992 -8.10266539 -11.69613533 -7.40920437 0 0 Z " fill="#FFFFFF" transform="translate(2261.84375,675.16796875)"/>
<path d="M0 0 C0.83265381 0.00523682 1.66530762 0.01047363 2.52319336 0.01586914 C3.42231445 0.0190918 4.32143555 0.02231445 5.24780273 0.02563477 C6.66609375 0.03820312 6.66609375 0.03820312 8.11303711 0.05102539 C9.06243164 0.05553711 10.01182617 0.06004883 10.98999023 0.06469727 C13.34356776 0.07652429 15.69702188 0.09300514 18.05053711 0.11352539 C18.47125488 1.18046631 18.89197266 2.24740723 19.32543945 3.34667969 C20.97934969 7.54002408 22.63445372 11.73289638 24.29006958 15.92556763 C25.04596585 17.83979919 25.8017239 19.75408534 26.55734253 21.66842651 C31.06971206 33.09753006 35.60478016 44.51701992 40.18725586 55.91821289 C40.60199158 56.95091812 41.01672729 57.98362335 41.44403076 59.04762268 C43.46199772 64.0716034 45.48367955 69.09403874 47.51098633 74.11425781 C48.24435962 75.93817709 48.97760232 77.7621489 49.71069336 79.58618164 C50.05049728 80.42378021 50.39030121 81.26137878 50.74040222 82.12435913 C53.05053711 87.88652848 53.05053711 87.88652848 53.05053711 90.11352539 C46.45053711 90.11352539 39.85053711 90.11352539 33.05053711 90.11352539 C31.89553711 87.18477539 30.74053711 84.25602539 29.55053711 81.23852539 C29.18508789 80.31700684 28.81963867 79.39548828 28.44311523 78.44604492 C28.15887695 77.7201416 27.87463867 76.99423828 27.58178711 76.24633789 C27.28852539 75.50270996 26.99526367 74.75908203 26.69311523 73.99291992 C26.05053711 72.11352539 26.05053711 72.11352539 26.05053711 70.11352539 C14.17053711 70.11352539 2.29053711 70.11352539 -9.94946289 70.11352539 C-10.93946289 73.74352539 -11.92946289 77.37352539 -12.94946289 81.11352539 C-14.22506478 84.13852417 -15.53989834 87.14857926 -16.94946289 90.11352539 C-23.21946289 90.11352539 -29.48946289 90.11352539 -35.94946289 90.11352539 C-33.19340899 80.09057283 -29.36806335 70.49069536 -25.63696289 60.80102539 C-24.56532665 58.00716631 -23.49489223 55.2128489 -22.42460632 52.41847229 C-21.69397416 50.51096173 -20.96294329 48.60360384 -20.23152161 46.69639587 C-17.73885695 40.19224742 -15.26974887 33.67956759 -12.81665039 27.16040039 C-12.49237564 26.29933182 -12.16810089 25.43826324 -11.83399963 24.55110168 C-10.58598251 21.23642572 -9.33824449 17.92165642 -8.0953064 14.60507202 C-7.24823891 12.34528751 -6.39798771 10.08672459 -5.54711914 7.82836914 C-5.29682953 7.15751282 -5.04653992 6.48665649 -4.78866577 5.79547119 C-2.65803033 0.15478824 -2.65803033 0.15478824 0 0 Z M7.05053711 22.11352539 C5.48196998 26.50938167 3.91544192 30.90595702 2.35083008 35.30322266 C1.81786711 36.80016897 1.28433959 38.2969144 0.75024414 39.79345703 C-0.01571487 41.93998966 -0.77966517 44.0872278 -1.54321289 46.23461914 C-1.78382446 46.90754501 -2.02443604 47.58047089 -2.27233887 48.27378845 C-3.44924142 51.12485663 -3.44924142 51.12485663 -3.94946289 54.11352539 C3.97053711 54.11352539 11.89053711 54.11352539 20.05053711 54.11352539 C14.49576403 37.94103056 14.49576403 37.94103056 8.05053711 22.11352539 C7.72053711 22.11352539 7.39053711 22.11352539 7.05053711 22.11352539 Z " fill="#FFFFFF" transform="translate(1643.949462890625,670.886474609375)"/>
<path d="M0 0 C1.18613892 0.00785522 1.18613892 0.00785522 2.39624023 0.01586914 C3.67724609 0.02070312 3.67724609 0.02070312 4.98413086 0.02563477 C5.88196289 0.03401367 6.77979492 0.04239258 7.70483398 0.05102539 C8.6065332 0.05553711 9.50823242 0.06004883 10.43725586 0.06469727 C12.67235033 0.07652316 14.90729891 0.09384295 17.14233398 0.11352539 C20.15579121 5.9284252 22.6955243 11.79381353 25.04858398 17.90258789 C25.41036743 18.83207245 25.77215088 19.76155701 26.14489746 20.71920776 C27.31403093 23.72436819 28.47813525 26.73145027 29.64233398 29.73852539 C31.25495088 33.88772917 32.87035688 38.03584441 34.48608398 42.18383789 C34.88456543 43.20773621 35.28304688 44.23163452 35.69360352 45.28656006 C39.59635363 55.30371233 43.58492318 65.28537707 47.61303711 75.25268555 C48.05583008 76.3514502 48.49862305 77.45021484 48.95483398 78.58227539 C49.3325293 79.51491211 49.71022461 80.44754883 50.09936523 81.40844727 C51.2051786 84.27652125 52.17029121 87.19739707 53.14233398 90.11352539 C46.54233398 90.11352539 39.94233398 90.11352539 33.14233398 90.11352539 C31.98733398 87.18477539 30.83233398 84.25602539 29.64233398 81.23852539 C29.27688477 80.31700684 28.91143555 79.39548828 28.53491211 78.44604492 C28.25067383 77.7201416 27.96643555 76.99423828 27.67358398 76.24633789 C27.38032227 75.50270996 27.08706055 74.75908203 26.78491211 73.99291992 C26.14233398 72.11352539 26.14233398 72.11352539 26.14233398 70.11352539 C14.26233398 70.44352539 2.38233398 70.77352539 -9.85766602 71.11352539 C-12.16766602 77.38352539 -14.47766602 83.65352539 -16.85766602 90.11352539 C-23.12766602 90.11352539 -29.39766602 90.11352539 -35.85766602 90.11352539 C-34.96446345 85.64751257 -33.68019424 81.65236864 -32.07641602 77.42211914 C-31.79073761 76.65989044 -31.5050592 75.89766174 -31.21072388 75.11233521 C-30.26386866 72.59030986 -29.31104415 70.07059152 -28.35766602 67.55102539 C-27.69401089 65.78990679 -27.03043809 64.02875716 -26.36694336 62.26757812 C-21.12736109 48.38266179 -15.81750436 34.5245813 -10.48266602 20.67602539 C-10.10682373 19.69834198 -9.73098145 18.72065857 -9.34375 17.71334839 C-8.28101667 14.95106344 -7.21454335 12.19025557 -6.14672852 9.42993164 C-5.82761505 8.59954376 -5.50850159 7.76915588 -5.17971802 6.91360474 C-2.55637083 0.15622453 -2.55637083 0.15622453 0 0 Z M7.14233398 22.11352539 C5.57164541 26.34785267 4.00517549 30.58370704 2.44262695 34.82104492 C1.91026162 36.26288123 1.37673772 37.70429031 0.84204102 39.14526367 C0.07451632 41.21430519 -0.68885441 43.2848379 -1.45141602 45.35571289 C-1.69202759 46.0016037 -1.93263916 46.64749451 -2.18054199 47.31295776 C-3.44468755 50.62598736 -3.44468755 50.62598736 -3.85766602 54.11352539 C3.73233398 54.11352539 11.32233398 54.11352539 19.14233398 54.11352539 C18.32276922 50.01570155 17.31099313 46.60196943 15.85717773 42.71899414 C15.18525391 40.91591797 15.18525391 40.91591797 14.49975586 39.07641602 C14.02653053 37.81792165 13.5532222 36.55945849 13.07983398 35.30102539 C12.60227409 34.02315998 12.12505699 32.74516641 11.64819336 31.46704102 C10.48293886 28.34792544 9.31420391 25.23016024 8.14233398 22.11352539 C7.81233398 22.11352539 7.48233398 22.11352539 7.14233398 22.11352539 Z " fill="#FFFFFF" transform="translate(1929.857666015625,670.886474609375)"/>
<path d="M0 0 C6.6 0 13.2 0 20 0 C28.24508851 19.56187666 36.07742335 39.26879242 43.76708984 59.05517578 C44.51003434 60.96519137 45.25303413 62.87518545 45.99609375 64.78515625 C46.52511292 66.1474939 46.52511292 66.1474939 47.06481934 67.53735352 C49.33435536 73.36083478 51.69442661 79.12988023 54.20727539 84.85327148 C55 87 55 87 55 90 C48.73 90 42.46 90 36 90 C32.2890625 81.11328125 32.2890625 81.11328125 31 78 C30.61585937 77.10667969 30.23171875 76.21335937 29.8359375 75.29296875 C29 73 29 73 29 70 C17.12 70.33 5.24 70.66 -7 71 C-9.31 77.27 -11.62 83.54 -14 90 C-20.27 90 -26.54 90 -33 90 C-31.87496702 83.24980211 -31.87496702 83.24980211 -30.56396484 79.80688477 C-30.12539406 78.64296707 -30.12539406 78.64296707 -29.67796326 77.45553589 C-29.35884476 76.62587311 -29.03972626 75.79621033 -28.7109375 74.94140625 C-28.3752626 74.05566925 -28.03958771 73.16993225 -27.69374084 72.25735474 C-26.59290426 69.35697958 -25.48407925 66.45973212 -24.375 63.5625 C-23.61164551 61.55655438 -22.84871046 59.55044909 -22.08618164 57.54418945 C-19.73291962 51.359416 -17.36797402 45.17915333 -15 39 C-14.6214386 38.01181274 -14.2428772 37.02362549 -13.85284424 36.00549316 C-9.25167499 23.99730203 -4.63256293 11.99611274 0 0 Z M9 23 C7.56975258 26.93051772 6.14576919 30.86323069 4.72753906 34.7980957 C4.24422865 36.13628168 3.75921402 37.47385343 3.27246094 38.81079102 C2.57297655 40.73294556 1.87965723 42.65722804 1.1875 44.58203125 C0.76855469 45.73936768 0.34960938 46.8967041 -0.08203125 48.08911133 C-1.15037809 50.96815013 -1.15037809 50.96815013 -1 54 C6.59 54 14.18 54 22 54 C19.67043731 46.11625761 19.67043731 46.11625761 16.95703125 38.4296875 C16.60576172 37.51445313 16.25449219 36.59921875 15.89257812 35.65625 C15.53615234 34.7384375 15.17972656 33.820625 14.8125 32.875 C14.44447266 31.91851563 14.07644531 30.96203125 13.69726562 29.9765625 C12.80144555 27.64975711 11.90232227 25.32428979 11 23 C10.34 23 9.68 23 9 23 Z " fill="#FFFFFF" transform="translate(1066,671)"/>
<path d="M0 0 C2.81256281 -0.02684312 5.62487241 -0.04676188 8.4375 -0.0625 C9.23994141 -0.07087891 10.04238281 -0.07925781 10.86914062 -0.08789062 C12.91295221 -0.0965143 14.95683902 -0.0522815 17 0 C18.79179671 1.79179671 18.13430821 4.47436524 18.1418457 6.89331055 C18.14888016 8.15519699 18.15591461 9.41708344 18.16316223 10.71720886 C18.16497812 11.39623953 18.16679401 12.0752702 18.16866493 12.77487755 C18.17581933 14.89801847 18.19147997 17.02092676 18.21000671 19.14399719 C18.26250933 25.18214629 18.31041116 31.22017274 18.32592773 37.25854492 C18.33603467 40.94930773 18.36543292 44.63949259 18.40724754 48.33002663 C18.41953076 49.7345218 18.42468368 51.13909875 18.42244911 52.54364586 C18.42008488 54.51573171 18.44451856 56.48779378 18.4699707 58.4597168 C18.47877007 60.14063667 18.47877007 60.14063667 18.48774719 61.85551453 C19.24838897 66.52474617 21.52994206 69.66776 25 72.8125 C29.6034409 75.54579304 34.79287371 75.47497436 40 75 C45.825327 73.28105105 48.07448749 71.25999298 51 66 C51.6008527 62.7871392 51.6008527 62.7871392 51.5300293 59.36791992 C51.54652023 58.07025192 51.56301117 56.77258392 51.58000183 55.43559265 C51.57834787 54.03388433 51.57641364 52.63217632 51.57421875 51.23046875 C51.58667167 49.78410658 51.60100806 48.33775951 51.61714172 46.89143372 C51.65506089 43.09918056 51.67033918 39.30718834 51.67993164 35.51477051 C51.69972796 29.42740311 51.75640137 23.34023336 51.80869484 17.25307655 C51.8240757 15.12525831 51.83123645 12.99753878 51.83683777 10.86967468 C51.84387222 9.58776749 51.85090668 8.30586029 51.8581543 6.98510742 C51.86163376 5.85070724 51.86511322 4.71630707 51.86869812 3.54753113 C52 1 52 1 53 0 C55.86267567 -0.07325168 58.700719 -0.09238205 61.5625 -0.0625 C62.36880859 -0.05798828 63.17511719 -0.05347656 64.00585938 -0.04882812 C66.00393756 -0.03700518 68.00197783 -0.01906914 70 0 C70.06980773 8.56297657 70.1229663 17.12583231 70.15543652 25.68902397 C70.17102819 29.666158 70.19214604 33.64309596 70.22631836 37.62011719 C70.25914583 41.4651085 70.27690176 45.30991236 70.28463173 49.15503311 C70.29013361 50.61490958 70.30087635 52.07477692 70.31719017 53.5345726 C70.43019705 64.07513986 70.2261801 74.63284409 63 83 C52.78488223 91.10971181 41.98096459 92.58030848 29.19140625 91.75390625 C18.84737037 90.49569736 12.13289484 88.25940847 5.47265625 80.08203125 C0.76656963 73.42859844 -0.12911038 66.36273529 -0.11352539 58.35205078 C-0.11344986 57.05115509 -0.11337433 55.7502594 -0.11329651 54.40994263 C-0.10819101 53.00506552 -0.10297504 51.60018881 -0.09765625 50.1953125 C-0.09578923 48.74657236 -0.09436667 47.29783158 -0.09336853 45.84909058 C-0.08956573 42.05153637 -0.07975474 38.25402092 -0.06866455 34.45648193 C-0.05840215 30.57515995 -0.05386059 26.69383166 -0.04882812 22.8125 C-0.0381303 15.20831574 -0.02108098 7.60416332 0 0 Z " fill="#FFFFFF" transform="translate(1133,671)"/>
<path d="M0 0 C17.45546852 -1.78295143 17.45546852 -1.78295143 22.79296875 1.95703125 C24.85928293 4.86691287 26.41879313 7.80055566 28 11 C29.17691538 12.9361994 30.40123223 14.83472968 31.63989258 16.73193359 C32.45159408 17.97603983 33.25010724 19.22886971 34.03393555 20.49072266 C35.9759578 23.79623459 35.9759578 23.79623459 39 26 C39.27328125 25.26410645 39.5465625 24.52821289 39.828125 23.77001953 C40.93313081 21.15806204 42.16506013 19.02248 43.75 16.6796875 C44.2759375 15.89722656 44.801875 15.11476563 45.34375 14.30859375 C45.8903125 13.50550781 46.436875 12.70242188 47 11.875 C47.5465625 11.06417969 48.093125 10.25335937 48.65625 9.41796875 C49.66976786 7.91508074 50.68518117 6.41346794 51.703125 4.91357422 C52.80967228 3.2808337 53.90591964 1.64112055 55 0 C57.15478516 -0.34057617 57.15478516 -0.34057617 59.7890625 -0.29296875 C60.73007813 -0.28330078 61.67109375 -0.27363281 62.640625 -0.26367188 C63.62546875 -0.23853516 64.6103125 -0.21339844 65.625 -0.1875 C67.11386719 -0.16719727 67.11386719 -0.16719727 68.6328125 -0.14648438 C71.08908072 -0.11105743 73.54427285 -0.06166196 76 0 C74.49948146 4.29292736 72.24477849 7.8416321 69.6875 11.5625 C68.79601256 12.88353298 67.90543804 14.20518236 67.015625 15.52734375 C66.29536133 16.5944458 66.29536133 16.5944458 65.56054688 17.68310547 C62.66443685 21.98286833 59.79239972 26.29777699 56.9375 30.625 C56.36539795 31.47779541 55.7932959 32.33059082 55.20385742 33.20922852 C54.40492065 34.42437134 54.40492065 34.42437134 53.58984375 35.6640625 C53.11409912 36.38029785 52.63835449 37.0965332 52.14819336 37.83447266 C50.76281104 40.44734554 50.06543106 42.01487774 50 45 C51.38423777 47.62707693 52.76993545 49.87686301 54.46875 52.28515625 C54.94187622 52.98209091 55.41500244 53.67902557 55.90246582 54.39707947 C57.42109541 56.62876177 58.95944818 58.84590815 60.5 61.0625 C62.4957264 63.96587095 64.48327434 66.87476829 66.46875 69.78515625 C66.94924805 70.4866983 67.42974609 71.18824036 67.92480469 71.91104126 C71.91728868 77.77912375 75.55328651 83.79277964 79 90 C71.71222083 91.71848009 64.08787948 92.92156935 57 90 C50.14604258 83.59339295 45.74853203 74.96474316 41.43847656 66.72729492 C40.00471499 63.89606675 40.00471499 63.89606675 38 61 C32.52073748 68.26905028 27.4921795 75.75489647 22.59448242 83.42358398 C22.14177979 84.13200439 21.68907715 84.8404248 21.22265625 85.5703125 C20.81797119 86.20727051 20.41328613 86.84422852 19.99633789 87.50048828 C19 89 19 89 18 90 C16.43827255 90.08685603 14.87270656 90.10702219 13.30859375 90.09765625 C12.36435547 90.09443359 11.42011719 90.09121094 10.44726562 90.08789062 C9.45404297 90.07951172 8.46082031 90.07113281 7.4375 90.0625 C6.44041016 90.05798828 5.44332031 90.05347656 4.41601562 90.04882812 C1.94395151 90.03700007 -0.52799518 90.02051849 -3 90 C-1.55311112 85.9506595 0.41232541 82.65594423 2.81640625 79.09765625 C3.18940353 78.54271988 3.56240082 77.98778351 3.94670105 77.41603088 C4.7401051 76.23637423 5.53546734 75.05803256 6.3326416 73.88092041 C7.56867498 72.05336992 8.79672335 70.22069955 10.02246094 68.38623047 C13.40296127 63.32978159 16.79335141 58.28199486 20.26171875 53.28515625 C21.09121254 52.06514952 21.92064781 50.845103 22.75 49.625 C23.44609375 48.62726562 24.1421875 47.62953125 24.859375 46.6015625 C26.26711242 44.08151417 26.26711242 44.08151417 25.47265625 41.55859375 C23.66939216 38.42560177 21.73383817 35.41454129 19.6875 32.4375 C18.79591604 31.11783488 17.90534732 29.79748346 17.015625 28.4765625 C16.29536133 27.40970215 16.29536133 27.40970215 15.56054688 26.32128906 C12.65785088 22.00357419 9.79242652 17.66190405 6.9375 13.3125 C6.07934692 12.02073853 6.07934692 12.02073853 5.20385742 10.70288086 C4.67123291 9.88956299 4.1386084 9.07624512 3.58984375 8.23828125 C3.11409912 7.51680908 2.63835449 6.79533691 2.14819336 6.05200195 C1.01218499 4.02177648 0.4430298 2.27336665 0 0 Z " fill="#FFFFFF" transform="translate(1703,671)"/>
<path d="M0 0 C6.27 0 12.54 0 19 0 C26.40289218 21.30961728 33.70836899 42.65211075 41 64 C44.05150554 56.67847376 46.64084487 49.26588768 49.07421875 41.71875 C49.44352005 40.58344849 49.81282135 39.44814697 50.1933136 38.27844238 C51.36122102 34.68665116 52.52464979 31.09343136 53.6875 27.5 C54.86169778 23.87821589 56.03686397 20.25675254 57.21382141 16.63586426 C57.94342931 14.39058369 58.67133617 12.14474952 59.39738464 9.89831543 C59.72475113 8.88966431 60.05211761 7.88101318 60.3894043 6.84179688 C60.82098091 5.50804016 60.82098091 5.50804016 61.26127625 4.14733887 C62 2 62 2 63 0 C69.27 0 75.54 0 82 0 C81.23940073 3.80299633 80.37330616 7.054793 79.1015625 10.67871094 C78.71025146 11.79888611 78.31894043 12.91906128 77.91577148 14.07318115 C77.48981689 15.28137512 77.0638623 16.48956909 76.625 17.734375 C76.17690287 19.01246112 75.72907288 20.29064094 75.28149414 21.56890869 C74.33861942 24.25954775 73.39356899 26.94940866 72.44677734 29.63867188 C71.26180456 33.00451685 70.080475 36.37162371 68.90061951 39.73926544 C63.01942672 56.52405122 57.05403942 73.27665037 51 90 C44.4 90 37.8 90 31 90 C27.93194472 82.49100558 25.15090329 74.91635682 22.48046875 67.2578125 C22.05880936 66.05422089 21.63714996 64.85062927 21.20271301 63.61056519 C20.08759752 60.42628994 18.97438024 57.24136462 17.86212158 54.05609131 C16.75276809 50.88058828 15.6409586 47.70594556 14.52929688 44.53125 C13.23103741 40.82330734 11.9335958 37.11509152 10.63912964 33.40582275 C8.70867869 27.8741961 6.77125168 22.34553011 4.80322266 16.82714844 C4.47268387 15.89635468 4.14214508 14.96556091 3.80158997 14.00656128 C3.19502899 12.30036255 2.58483315 10.59544973 1.97026062 8.89212036 C0.87583843 5.8057505 0 3.30085729 0 0 Z " fill="#FFFFFF" transform="translate(2077,671)"/>
<path d="M0 0 C17.48632498 -2.50976787 17.48632498 -2.50976787 22.81494141 1.29638672 C25.98930256 4.93747166 27.92537539 9.25312352 29.88330078 13.63330078 C31.81580345 17.72898964 34.25897975 21.51937093 36.625 25.375 C41 32.6554302 41 32.6554302 41 35 C41.66 35 42.32 35 43 35 C43.26498291 34.12674072 43.52996582 33.25348145 43.80297852 32.35375977 C44.9755209 29.06858442 46.38037295 26.33755798 48.15234375 23.33984375 C48.76400391 22.29892578 49.37566406 21.25800781 50.00585938 20.18554688 C50.64330078 19.11369141 51.28074219 18.04183594 51.9375 16.9375 C52.57107422 15.86177734 53.20464844 14.78605469 53.85742188 13.67773438 C55.56514965 10.78124132 57.27904146 7.88864827 59 5 C59.46196777 4.07106934 59.92393555 3.14213867 60.39990234 2.18505859 C62 0 62 0 64.26831055 -0.56762695 C65.13238525 -0.54144287 65.99645996 -0.51525879 66.88671875 -0.48828125 C67.82451172 -0.47216797 68.76230469 -0.45605469 69.72851562 -0.43945312 C70.70498047 -0.39755859 71.68144531 -0.35566406 72.6875 -0.3125 C73.67556641 -0.28994141 74.66363281 -0.26738281 75.68164062 -0.24414062 C78.12261559 -0.18517988 80.56054868 -0.10295048 83 0 C79.07857008 7.406553 74.86778281 14.5303661 70.3125 21.5625 C65.69772103 28.74830844 61.13434967 35.95889666 56.6875 43.25 C56.22577393 44.00611572 55.76404785 44.76223145 55.28833008 45.54125977 C51.80966191 51.26186937 50.82236895 54.65436175 50.68359375 61.2890625 C50.66281265 62.10748627 50.64203156 62.92591003 50.62062073 63.76913452 C50.55515188 66.38766966 50.49625274 69.00630639 50.4375 71.625 C50.39431224 73.39844807 50.35069786 75.17188581 50.30664062 76.9453125 C50.19866901 81.29677232 50.09957622 85.64830747 50 90 C44.39 90 38.78 90 33 90 C33.06703125 87.56109375 33.1340625 85.1221875 33.203125 82.609375 C33.49282591 64.42918269 33.48449128 50.16458803 21.79833984 35.36474609 C18.41704713 30.91847929 15.57646474 26.11215834 12.625 21.375 C11.49422514 19.61067156 10.36148724 17.84759935 9.2265625 16.0859375 C0 1.63974485 0 1.63974485 0 0 Z " fill="#FFFFFF" transform="translate(2473,671)"/>
<path d="M0 0 C23.1 0 46.2 0 70 0 C70 4.95 70 9.9 70 15 C69.67 15.33 69.34 15.66 69 16 C60.75 16 52.5 16 44 16 C44 40.42 44 64.84 44 90 C38.06 90 32.12 90 26 90 C26 65.58 26 41.16 26 16 C17.42 16 8.84 16 0 16 C0 10.72 0 5.44 0 0 Z " fill="#FFFFFF" transform="translate(1533,671)"/>
<path d="M0 0 C23.1 0 46.2 0 70 0 C70 4.95 70 9.9 70 15 C69.67 15.33 69.34 15.66 69 16 C60.75 16 52.5 16 44 16 C44 40.42 44 64.84 44 90 C38.06 90 32.12 90 26 90 C26 65.58 26 41.16 26 16 C17.42 16 8.84 16 0 16 C0 10.72 0 5.44 0 0 Z " fill="#FFFFFF" transform="translate(1346,671)"/>
<path d="M0 0 C5.701145 4.84901657 9.5231926 11.3618486 10.1953125 18.8671875 C10.41252828 27.22999511 7.96230107 33.64060991 2.40234375 39.87890625 C-3.32512074 45.33200118 -8.96534422 47.4405938 -16.7421875 48.3046875 C-23.59371865 48.01692319 -31.10766042 44.82516053 -35.8046875 39.8671875 C-41.28028655 31.84167712 -43.78564373 25.63470881 -42.8046875 15.8671875 C-41.0365019 8.69857963 -37.71924784 3.31860713 -31.8046875 -1.1328125 C-21.70403031 -6.96922636 -9.60802898 -6.45684262 0 0 Z " fill="#FFFFFF" transform="translate(199.8046875,662.1328125)"/>
<path d="M0 0 C5.79266898 5.95817381 8.96440926 12.54402535 9.2890625 20.84765625 C9.0223087 28.14234664 6.88069757 33.64369077 2.1875 39.25 C-4.56514489 45.26757838 -11.37339382 47.60519992 -20.3125 47.125 C-28.65520795 46.09944612 -34.03643517 42.98675801 -39.3359375 36.453125 C-43.38609844 30.41002772 -44.90880527 23.44224447 -43.8125 16.25 C-41.29528779 7.61402581 -37.62059592 1.89072192 -29.81640625 -2.6796875 C-19.36968542 -8.25941754 -9.70502866 -6.0386845 0 0 Z " fill="#FFFFFF" transform="translate(200.8125,162.75)"/>
<path d="M0 0 C4.80792034 4.51334316 8.5223197 9.64031523 9.46875 16.296875 C9.55014358 25.29086612 8.39044942 31.85180804 2.4609375 38.8046875 C-2.92303021 43.93349087 -10.06205622 47.1057627 -17.5 47.5 C-23.9756271 47.16703336 -29.78049356 44.77560515 -34.8125 40.75 C-41.69952351 32.09202759 -44.18707182 25.19436328 -43 14 C-40.55321195 5.91645256 -35.2930218 -0.09577643 -27.9140625 -4.14453125 C-18.70498575 -8.26042474 -7.78362927 -5.90220621 0 0 Z " fill="#FFFFFF" transform="translate(700,663)"/>
<path d="M0 0 C5.83718861 4.08885192 11.23497249 8.89344187 13 16 C14.11816358 24.98831492 13.44232897 32.57491299 8 40 C2.10555234 46.45647639 -4.41897164 49.51105522 -13.12890625 50.0546875 C-20.94399764 49.90582862 -26.6915992 47.2696941 -32.30859375 41.90234375 C-37.94042338 35.56816123 -39.36984304 29.23657396 -39.28125 20.953125 C-38.70483105 14.90072599 -36.52917299 9.91146624 -32.75 5.1875 C-22.7082242 -2.8002762 -12.11880484 -6.23669991 0 0 Z " fill="#FFFFFF" transform="translate(696,160)"/>
<path d="M0 0 C5.94 0 11.88 0 18 0 C18 29.7 18 59.4 18 90 C12.06 90 6.12 90 0 90 C0 60.3 0 30.6 0 0 Z " fill="#FFFFFF" transform="translate(2170,671)"/>
<path d="M0 0 C5.94 0 11.88 0 18 0 C18 29.7 18 59.4 18 90 C12.06 90 6.12 90 0 90 C0 60.3 0 30.6 0 0 Z " fill="#FFFFFF" transform="translate(1315,671)"/>
<path d="M0 0 C5.61 0 11.22 0 17 0 C17 5.61 17 11.22 17 17 C11.39 17 5.78 17 0 17 C0 11.39 0 5.78 0 0 Z " fill="#FFFFFF" transform="translate(1830,744)"/>
<path d="M0 0 C5.61 0 11.22 0 17 0 C17 5.61 17 11.22 17 17 C11.39 17 5.78 17 0 17 C0 11.39 0 5.78 0 0 Z " fill="#FFFFFF" transform="translate(1466,744)"/>
</svg>

